<svg width="116" height="32" viewBox="0 0 116 32" fill="none" xmlns="http://www.w3.org/2000/svg">
<path d="M17.4462 31.9912C17.1539 31.9912 16.9373 31.949 16.8017 31.8663C16.6203 29.9489 16.6538 27.9576 16.6872 26.0313C16.7101 24.7454 16.733 23.4138 16.6907 22.1173C16.659 21.9045 16.6784 21.7602 16.7489 21.6705C16.8439 21.5491 17.0341 21.5298 17.2542 21.5087C17.3722 21.4963 17.4937 21.4858 17.6152 21.4559C21.1124 20.8296 24.3084 18.5199 25.7558 15.5734C25.7629 15.5611 25.7611 15.5453 25.7558 15.533C24.5038 13.2356 22.2922 11.3199 19.841 10.4069C18.7281 9.90204 17.5184 9.64345 16.2452 9.64345C13.2799 9.64345 10.1208 11.1018 8.00424 13.4466C7.65734 13.8002 7.33334 14.1661 7.04455 14.5373C6.88607 14.7431 6.73991 14.9454 6.60961 15.1389C6.54974 15.2286 6.4793 15.3342 6.41591 15.4415C6.40358 15.4626 6.3895 15.4837 6.37365 15.5066C6.32963 15.5717 6.27856 15.6455 6.27328 15.7212C6.26975 15.7564 6.2768 15.7915 6.28384 15.8179C6.34899 16.1733 6.61313 16.4688 6.84733 16.7309C6.88431 16.7731 6.92129 16.8136 6.9565 16.8558C7.2629 17.2094 7.58162 17.5559 7.90563 17.8902C8.94456 18.9579 10.1472 19.8234 11.4785 20.462C12.727 21.0601 14.0195 21.4172 15.3225 21.5227C15.5691 21.5315 15.5902 21.7532 15.5937 22.0663C15.5937 22.1296 15.5937 22.1894 15.599 22.2422C15.5955 24.0858 15.5955 25.9381 15.5972 27.7852C15.5972 28.9972 15.5972 30.2075 15.5972 31.4142C15.5972 31.6447 15.5814 31.8751 15.393 31.9402C12.7199 31.9332 9.85494 30.9797 7.32453 29.2575C7.18366 29.1414 7.01461 29.0359 6.85261 28.9356C6.45465 28.6893 6.07958 28.4571 5.98801 28.0086C6.0109 27.7605 6.20108 27.5723 6.40182 27.3735C6.52508 27.2522 6.65187 27.1255 6.73639 26.9848C7.61156 25.8308 8.33881 24.8633 9.04669 23.8448C9.23334 23.6495 9.3883 23.3962 9.53622 23.1517C9.76161 22.784 9.99405 22.404 10.3533 22.1982C10.3762 22.1965 10.3991 22.1947 10.4202 22.1947C10.6385 22.1947 10.8322 22.3003 11.0365 22.4111C11.1281 22.4603 11.2232 22.5131 11.32 22.5536C11.9205 22.7981 12.5826 23.032 13.3468 23.2713C13.699 23.4402 13.625 25.1148 13.5704 26.3374C13.544 26.9285 13.5211 27.4404 13.5475 27.7025C13.507 27.8696 13.5246 28.2074 13.5475 28.5996C13.581 29.2364 13.6233 30.0298 13.412 30.2514C13.3767 30.2901 13.3345 30.3077 13.2852 30.3077C13.2517 30.3077 13.213 30.2989 13.1707 30.2813C13.102 30.2532 13.014 30.2444 12.9295 30.2339C12.8766 30.2286 12.8273 30.2233 12.7851 30.2127L12.69 30.1916C12.5368 30.1565 12.3783 30.1195 12.2198 30.0931L12.1652 30.0843C12.0842 30.0703 11.9944 30.0527 11.9064 30.0527C11.843 30.0527 11.7902 30.0615 11.7461 30.0773C11.6775 30.1037 11.6352 30.1547 11.6282 30.2233C11.6194 30.3113 11.6739 30.4186 11.7549 30.4713C11.8095 30.5065 11.8729 30.5259 11.9275 30.5417L12.1441 30.6068C12.6143 30.7493 13.102 30.8953 13.5968 30.9744L13.6532 30.9832C13.8011 31.0079 13.9684 31.0342 14.1304 31.0342C14.3135 31.0342 14.4632 30.9991 14.5847 30.9287C14.6728 30.8777 14.7344 30.8003 14.7538 30.7158C14.7626 30.6789 14.7626 30.642 14.7643 30.6068C14.7696 30.1564 14.7784 29.7096 14.7855 29.2611C14.796 28.6735 14.8066 28.0649 14.8119 27.4685V27.4457C14.8207 26.501 14.8207 25.7147 14.8119 24.9706C14.8066 24.5466 14.796 24.1297 14.7837 23.7339C14.7766 23.5281 14.7696 23.3223 14.7608 23.1165C14.759 23.0743 14.759 23.032 14.7573 22.9916C14.7538 22.7594 14.7502 22.5413 14.5072 22.3706C14.2607 22.1965 13.9666 22.1314 13.6831 22.0663C13.6215 22.0522 13.5599 22.0382 13.4982 22.0223C13.176 21.9432 12.8009 21.8499 12.4364 21.7497C11.7954 21.5755 11.1932 21.2677 10.6104 20.9686C10.4906 20.907 10.3709 20.8455 10.2511 20.7857C10.2476 20.7839 10.2441 20.7821 10.2388 20.7821C10.2018 20.7751 10.1666 20.7716 10.1314 20.7716C9.69646 20.7716 9.42704 21.2624 9.16819 21.7391C9.01147 22.0258 8.86532 22.295 8.69275 22.441C8.68923 22.4427 8.68747 22.4463 8.68571 22.4498C7.76476 23.7199 6.93009 24.8334 6.13417 25.8572C6.02851 25.9856 5.9299 26.1052 5.8401 26.2178C5.3717 26.7948 5.08995 27.1413 4.79588 27.1413C4.50181 27.1413 4.17957 26.8282 3.52628 25.9434C1.62275 23.7902 0.43238 20.9123 0.171767 17.8392C0.145354 17.665 0.175288 17.5084 0.251007 17.4205C0.300312 17.3624 0.368988 17.3343 0.455272 17.3343C0.47112 17.3343 0.486968 17.3343 0.504577 17.3378C0.664818 17.3378 0.819777 17.3378 0.972975 17.3378H1.93795C2.60004 17.3378 3.30969 17.336 4.01405 17.3149C4.08096 17.3132 4.1514 17.3097 4.22183 17.3044C4.32925 17.2991 4.44018 17.2921 4.54936 17.2921C4.68847 17.2921 4.80117 17.3026 4.90154 17.3237C5.04417 17.3536 5.15687 17.424 5.22554 17.5278C5.29246 17.6263 5.36994 17.7178 5.44389 17.8075C5.48087 17.8515 5.51609 17.8954 5.55131 17.9394C5.6059 18.008 5.65696 18.0801 5.70803 18.1505C5.74853 18.2086 5.78903 18.2666 5.83305 18.3211C6.03732 18.5868 6.27856 18.8506 6.61137 19.1761C6.69413 19.257 6.77689 19.3485 6.85789 19.4364C7.02694 19.6229 7.20303 19.8164 7.41082 19.9536L7.44779 19.9782C7.50062 20.0117 7.55169 20.0451 7.58867 20.0891C7.69608 20.214 7.58867 20.4479 7.51647 20.6027C7.5059 20.6238 7.4971 20.6449 7.4883 20.6625C7.40201 20.856 7.28931 21.0583 7.1414 21.2782C7.00933 21.477 6.86494 21.6705 6.72406 21.8587C6.58143 22.0505 6.43352 22.2475 6.29969 22.4515C6.2363 22.5325 6.16938 22.5747 6.09719 22.5747C5.90173 22.5747 5.68866 22.2915 5.53194 22.0856C5.48792 22.0276 5.44918 21.9766 5.41396 21.9361C5.23259 21.7866 4.94908 21.3591 5.02304 21.1533C5.05121 21.0742 5.13574 21.0355 5.27309 21.0355H5.29422C5.41572 21.0407 5.51961 21.1287 5.61998 21.2131C5.72564 21.3028 5.83481 21.3961 5.9704 21.3961C6.03732 21.3961 6.10071 21.375 6.16762 21.3292C6.4705 21.141 6.59376 20.8595 6.50747 20.5552C6.40182 20.1858 6.01795 19.9079 5.6147 19.9079C5.58829 19.9079 5.56363 19.9079 5.53722 19.9114C5.46326 19.9184 5.38755 19.9202 5.30302 19.9202C5.14982 19.9202 4.9931 19.9096 4.84167 19.8991C4.68847 19.8885 4.52999 19.878 4.37327 19.878C4.30107 19.878 4.23416 19.8797 4.17076 19.885C3.99291 19.8973 3.74991 19.9149 3.57382 20.038C3.25862 20.2579 3.4488 20.6625 3.57382 20.9299C3.59319 20.9704 3.6108 21.0073 3.62489 21.0425C3.73758 21.3011 3.86437 21.5649 4.00172 21.8235C4.42962 22.6222 4.9033 23.2766 5.45094 23.8236C5.73268 24.0365 5.94575 24.1333 6.1236 24.1333C6.39302 24.1333 6.56559 23.9222 6.80507 23.6301C6.8667 23.5545 6.93361 23.4736 7.00757 23.3891C7.25586 23.0373 7.50767 22.6908 7.75243 22.3565C8.17152 21.7813 8.6047 21.1867 9.00795 20.5746C9.10304 20.4321 9.16115 20.2069 9.01675 20.0398C8.96921 19.9853 8.91286 19.9448 8.85827 19.9043C8.84066 19.892 8.82305 19.8797 8.80721 19.8656C8.73677 19.8111 8.66986 19.7478 8.60646 19.6862L8.56244 19.644C8.4427 19.5297 8.31592 19.4259 8.19089 19.3238C8.08524 19.2376 7.97607 19.1479 7.87393 19.0529C7.62565 18.826 7.40201 18.6096 7.18894 18.3898C6.7047 17.8937 6.31026 17.424 5.98449 16.9526C5.9299 16.8734 5.8806 16.789 5.83305 16.7063C5.78199 16.6183 5.72916 16.5251 5.66753 16.4407C5.61998 16.3738 5.5742 16.3263 5.52313 16.2946C5.43685 16.2384 5.32239 16.2384 5.22026 16.2366C5.19209 16.2366 5.16391 16.2366 5.13926 16.2348C4.98782 16.2243 4.83814 16.2173 4.68671 16.212C4.41025 16.2014 4.11266 16.1944 3.77632 16.1926H3.60376C3.19171 16.1926 2.77085 16.1979 2.36584 16.2049L1.94675 16.2102C1.68614 16.2137 1.42729 16.2155 1.16667 16.2155C0.879648 16.2155 0.622556 16.212 0.383074 16.2067C0.356661 16.2102 0.339052 16.212 0.321443 16.212C0.133027 16.212 0.0379393 16.0537 0.00976492 15.9059C-0.0272139 15.7124 0.0397002 15.4679 0.229877 15.3887C1.6474 15.3377 2.65287 15.3307 3.37132 15.3307C3.55093 15.3307 3.71469 15.3307 3.86613 15.3307C3.99291 15.3307 4.11089 15.3307 4.22007 15.3307C5.51433 15.3307 5.5742 15.2849 5.95984 14.6763C6.29265 14.1538 6.91072 13.1793 8.98858 11.4043L8.99915 11.3955C10.0645 10.5969 11.2848 9.94426 12.727 9.39893C13.1778 9.23182 13.6585 9.14562 14.1251 9.06294C14.5477 8.9873 14.9844 8.9099 15.4018 8.77269C15.6941 8.67594 15.6976 8.39096 15.7029 8.13941C15.7029 8.0708 15.7046 8.00572 15.7117 7.94591C15.7416 7.67149 15.7628 7.37947 15.7786 7.07866C15.805 6.56676 15.8121 6.0232 15.8033 5.31427C15.7962 4.88681 15.7856 4.45407 15.7733 4.03364C15.7522 3.29306 15.7311 2.5296 15.7416 1.7767C15.7416 1.72217 15.7451 1.66588 15.7469 1.61135C15.7504 1.52867 15.7539 1.44247 15.7522 1.35803C15.7469 1.00973 15.4757 0.832059 14.9457 0.832059C14.4949 0.832059 13.9244 0.955198 13.4648 1.05547C13.1707 1.11879 12.9171 1.17509 12.7657 1.18212C12.7604 1.18212 12.7569 1.18212 12.7534 1.18388C12.6636 1.2173 12.5614 1.24017 12.4523 1.26304C12.1283 1.33516 11.7602 1.41784 11.6845 1.80309C11.6845 1.80661 11.6845 1.81012 11.6845 1.81188V1.97372C11.7004 2.79875 11.7127 3.65192 11.9258 4.45759C12.0208 4.74608 12.336 4.91496 12.771 4.91496C13.3679 4.91496 14.0283 4.58952 14.0582 4.10577C14.067 3.82079 14.0265 3.63608 13.9332 3.54109C13.8804 3.48656 13.8099 3.45841 13.7219 3.45841C13.618 3.45841 13.5 3.49711 13.3855 3.53405C13.2746 3.56924 13.1619 3.60618 13.0668 3.60618C12.9929 3.60618 12.9383 3.58331 12.896 3.53581C12.7798 3.40388 12.7551 3.06613 12.8203 2.52784C12.8432 2.3361 13.0334 2.29388 13.2799 2.2587C13.3098 2.25342 13.3398 2.2499 13.3679 2.24463C13.426 2.23407 13.4912 2.22176 13.5599 2.20768C13.7465 2.16898 13.9596 2.12501 14.1427 2.12501C14.2079 2.12501 14.2642 2.13028 14.3153 2.14084C14.509 2.18306 14.5196 2.32027 14.5143 2.54192C14.4967 3.23325 14.5072 3.94569 14.5178 4.6335C14.5336 5.68193 14.5495 6.76378 14.4667 7.80342C14.4386 7.84916 14.1727 7.92304 13.6761 8.01803C13.6162 8.03034 13.5722 8.03738 13.5528 8.04266C12.4399 8.32412 11.2707 8.64955 10.2828 9.23709C10.2283 9.26876 10.1737 9.30394 10.1173 9.33912C9.87079 9.49392 9.61722 9.65576 9.339 9.65576C9.31258 9.65576 9.28441 9.65576 9.25624 9.65049C9.19284 9.64345 9.03965 9.46754 8.96569 9.3831C8.93399 9.34616 8.90758 9.31625 8.88821 9.2969C8.75262 9.16145 8.61879 9.01896 8.47792 8.85713C8.24548 8.58974 8.01832 8.29421 7.76476 7.92831C7.39849 7.40058 7.04103 6.85877 6.70117 6.32049C6.6008 6.16217 6.49867 6.00561 6.39478 5.84905C6.17114 5.50954 5.93871 5.15772 5.74677 4.79358C5.66577 4.62646 5.60766 4.47518 5.57068 4.33269L5.56187 4.30103C5.48087 4.00901 5.49496 3.94745 5.50553 3.93337C5.73092 3.66247 6.0426 3.43027 6.34547 3.20686C6.58143 3.03095 6.82444 2.85152 7.02694 2.65098C9.57672 0.942884 12.7833 0 16.0515 0C19.6068 0 23.0493 1.09417 25.747 3.08196C25.9355 3.24556 26.1186 3.38101 26.2824 3.50239C26.6275 3.75746 26.8775 3.94217 26.9075 4.199C26.9356 4.43472 26.7824 4.73905 26.4091 5.1841C26.4074 5.18586 26.4056 5.18938 26.4039 5.1929C26.2489 5.49898 26.0922 5.72239 25.8456 5.9845C25.5991 6.2466 25.3984 6.57028 25.2029 6.8834C25.1131 7.02765 25.0198 7.17893 24.9247 7.31614C24.5989 7.7911 24.2045 8.3505 23.7537 8.88703C23.5494 9.12803 23.3064 9.40069 23.0018 9.58188C22.9208 9.63114 22.8275 9.65928 22.7535 9.65928C22.6866 9.65928 22.6373 9.63641 22.6074 9.59419C22.5563 9.52031 22.5757 9.40597 22.6672 9.25644C22.8363 8.98202 23.0335 8.72519 23.2536 8.49123C23.479 8.25375 23.6745 7.98461 23.8629 7.72602L23.9386 7.62223C24.5672 6.76378 25.2205 5.83849 25.7083 4.78654C25.7611 4.6722 25.8069 4.55962 25.7893 4.43824C25.7735 4.32741 25.7048 4.23418 25.6326 4.14974C25.0849 3.50767 24.2908 3.11187 23.5917 2.7618C23.5125 2.72135 23.4279 2.68265 23.3381 2.68265C23.324 2.68265 23.3082 2.68264 23.2941 2.68616C23.0934 2.71783 23.0071 2.94475 22.9595 3.11011L22.4313 4.99236C22.3961 5.12077 22.3467 5.29668 22.4137 5.44973C22.4612 5.55527 22.5616 5.64323 22.706 5.70128C22.794 5.73646 22.8768 5.75405 22.9525 5.75405C22.9983 5.75405 23.0423 5.74702 23.0846 5.7347C23.2043 5.69424 23.31 5.59573 23.3945 5.43917C23.4808 5.27909 23.5336 5.10318 23.5829 4.93255C23.6093 4.84459 23.6357 4.75312 23.6674 4.66516C23.7502 4.43824 23.8558 4.32741 24.0037 4.31686C24.0108 4.31686 24.0178 4.31686 24.0249 4.31686C24.0971 4.31686 24.1728 4.345 24.2309 4.39602C24.363 4.51036 24.4158 4.70562 24.37 4.92199C24.3348 5.08207 24.2538 5.23512 24.1816 5.37057C23.9967 5.71535 23.803 6.05838 23.6058 6.39085C23.5371 6.50695 23.4614 6.62481 23.3469 6.67231C23.3082 6.68814 23.2642 6.69518 23.2113 6.69518C23.1726 6.69518 23.1321 6.69166 23.0793 6.68286C22.8222 6.64064 22.5739 6.54038 22.3344 6.44187L21.8872 6.25716C21.5367 6.11291 21.6512 5.57463 21.7269 5.21753C21.734 5.18234 21.741 5.15068 21.748 5.11901C21.7815 4.95893 21.8202 4.79534 21.859 4.63702C21.9365 4.32038 22.0157 3.99494 22.0439 3.66247L22.0615 3.571C22.2675 2.53664 22.3802 1.96669 21.0947 1.63421C19.6297 1.14694 18.3442 0.90946 17.1662 0.90946C17.0729 0.90946 16.9795 0.90946 16.8862 0.914737C16.8827 0.914737 16.8792 0.914737 16.8774 0.914737C16.5516 0.999175 16.5411 1.37211 16.5323 1.64477C16.5323 1.67116 16.5323 1.69754 16.5287 1.72217C16.5287 2.52608 16.5287 3.32824 16.5287 4.13039C16.5287 4.53851 16.5287 4.94662 16.5287 5.35298C16.5287 5.95811 16.5287 6.56325 16.5287 7.16838C16.5287 7.27217 16.5287 7.37771 16.5305 7.4815C16.5305 7.66797 16.534 7.85443 16.5305 8.0409C16.5305 8.24847 16.5287 8.50531 16.7154 8.69177C16.8774 8.85361 17.0905 8.87823 17.2965 8.9011C17.3229 8.90462 17.3493 8.90638 17.3757 8.9099C17.6469 8.94508 17.9128 8.99786 18.1857 9.05415C18.7123 9.16321 19.2335 9.31625 19.7389 9.46578L19.8392 9.49568C21.5209 9.99175 22.9155 11.0824 24.3137 12.2522C24.7469 12.6902 25.1448 13.1951 25.5269 13.6824C25.6696 13.8636 25.8104 14.043 25.9548 14.2207C26.0429 14.3086 26.1115 14.4194 26.1785 14.5267C26.3211 14.7554 26.469 14.9929 26.7789 15.0123C27.3336 15.0439 27.9182 15.0598 28.6772 15.0598C29.0399 15.0598 29.4027 15.0562 29.7654 15.0527C30.1282 15.0492 30.4909 15.0457 30.8536 15.0457C31.1618 15.0457 31.4365 15.0474 31.6918 15.0527C31.727 15.0545 31.7675 15.0562 31.8098 15.0562H31.8503C32.0599 15.0562 32.2113 15.0703 32.2483 15.2497C32.3187 15.5136 32.3134 15.6913 32.2342 15.7951C32.1602 15.8918 32.0106 15.9358 31.7658 15.9358C31.7042 15.9358 31.6372 15.9323 31.558 15.927C31.0544 15.9375 30.5666 15.9428 30.1017 15.9428C29.253 15.9428 28.612 15.9252 28.1436 15.9112C27.8496 15.9024 27.6189 15.8971 27.4269 15.8971C26.6169 15.8971 26.5377 16.0185 26.1591 16.5972C25.8298 17.1003 25.2786 17.9429 23.8101 19.3749C23.5089 19.5824 23.2043 19.8094 22.9085 20.0292C22.6144 20.2491 22.308 20.4743 21.9981 20.6907C21.6477 20.9475 21.8836 21.3363 22.058 21.6195C22.1037 21.6951 22.1478 21.7655 22.1777 21.8288C22.47 22.2422 22.7518 22.6679 23.0247 23.0778C23.6287 23.9872 24.2538 24.9266 24.9916 25.7569L25.0392 25.8273C25.3315 26.253 25.6343 26.6945 25.9812 27.0974C26.0112 27.1325 26.0446 27.1677 26.0763 27.2047C26.3722 27.5319 26.7067 27.903 26.388 28.3006C24.319 29.933 22.2112 31.0149 20.1192 31.518C20.0312 31.5391 19.9238 31.5655 19.8022 31.5954C19.1895 31.7467 18.1611 32 17.4462 32V31.9912ZM20.7778 21.3644C20.6563 21.3644 20.5436 21.4119 20.4238 21.4629C20.3851 21.4788 20.3446 21.4963 20.3041 21.5104C20.3006 21.5104 20.2988 21.5122 20.2953 21.5139C20.1491 21.6054 20.0083 21.6476 19.8586 21.6898C19.8022 21.7057 19.7459 21.7233 19.686 21.7426C19.3409 21.8886 18.9711 21.9748 18.6136 22.0593C18.3301 22.1261 18.0361 22.193 17.7561 22.2915C17.5501 22.3759 17.4215 22.594 17.4092 22.8755C17.4039 24.478 17.4057 26.1052 17.4074 27.6814C17.4074 28.5803 17.4074 29.4792 17.4074 30.3781C17.3969 30.6138 17.462 30.8179 17.5906 30.9516C17.6962 31.0624 17.8424 31.1204 18.0097 31.1204C18.073 31.1204 18.14 31.1116 18.2086 31.0958C19.1102 30.985 20.0241 30.7757 20.9961 30.4537C21.0719 30.4309 21.1176 30.3799 21.1264 30.3113C21.137 30.2163 21.0701 30.0984 20.9715 30.0421C20.9275 30.0157 20.8729 30.0016 20.8095 30.0016C20.7743 30.0016 20.7338 30.0052 20.6897 30.014C20.4855 30.0579 20.2812 30.109 20.084 30.16L20.047 30.1688C19.7353 30.2514 19.3902 30.3236 18.9271 30.401H18.9165C18.8461 30.401 18.7897 30.3693 18.7457 30.306C18.6594 30.1811 18.6559 29.977 18.7017 29.8592C18.7739 29.7272 18.9553 29.7044 19.1313 29.6832C19.2035 29.6745 19.2722 29.6657 19.3356 29.6498C19.5381 29.6006 19.7265 29.5601 19.8991 29.5214C20.5911 29.3684 21.049 29.2681 21.2127 28.9444C21.3606 28.6507 21.2673 28.1933 20.8764 27.3172C20.8112 27.0657 20.6827 26.83 20.5577 26.6013C20.5189 26.5309 20.482 26.4606 20.445 26.3902C20.3992 26.2882 20.3252 26.1932 20.2143 26.0964C20.1245 25.9944 19.9889 25.9346 19.8427 25.9346C19.6631 25.9346 19.5011 26.0243 19.4096 26.1721C19.3092 26.3233 19.2951 26.5274 19.2951 26.7068C19.2986 26.7684 19.2986 26.8335 19.3004 26.9039C19.3039 27.2856 19.3092 27.8063 19.7741 27.8415C19.8339 27.852 19.9026 27.8696 19.9326 27.9118C19.9801 27.9839 19.9836 28.1317 19.9378 28.2161C19.8973 28.2812 19.804 28.3164 19.7124 28.3463C19.5381 28.3903 19.2687 28.4571 19.031 28.4571C18.8778 28.4571 18.7616 28.429 18.6841 28.371C18.6295 28.2936 18.6295 28.1704 18.6277 28.0631C18.6277 28.0385 18.6277 28.0121 18.6277 27.9892C18.626 27.224 18.6242 26.4307 18.6277 25.632C18.6295 25.5317 18.6436 25.391 18.7422 25.3242C19.0468 25.1799 19.3832 25.15 19.7952 25.15C19.8656 25.15 19.9361 25.15 20.0065 25.15C20.077 25.15 20.1456 25.15 20.2161 25.15H20.283C20.283 25.15 20.2971 25.15 20.3041 25.15C20.4767 25.15 20.5999 25.2907 20.7091 25.442C20.8007 25.6056 20.8711 25.7516 20.9327 25.88C21.0983 26.2248 21.1986 26.4307 21.4786 26.4307C21.6459 26.4307 21.8713 26.3603 22.2869 26.1791C22.3943 26.1404 22.5017 26.1017 22.6003 26.1017C22.6584 26.1017 22.7095 26.1158 22.757 26.1422C22.9754 26.2706 23.1215 26.4606 23.2765 26.6629C23.3381 26.742 23.4015 26.8247 23.4684 26.9021C23.6639 27.1255 23.7625 27.312 23.685 27.5969C23.6639 27.6919 23.4279 27.7957 23.2342 27.7957C23.1885 27.7957 23.1515 27.7904 23.1268 27.7781C23.0793 27.7535 23.0458 27.699 23.0212 27.648L22.9983 27.604C22.8891 27.3999 22.7535 27.1449 22.5035 27.0903C22.4999 27.0903 22.4964 27.0903 22.4947 27.0903C22.4947 27.0903 22.4929 27.0903 22.4911 27.0903C22.2693 27.1044 22.0509 27.2117 21.9365 27.363C21.8555 27.4685 21.8273 27.5952 21.8537 27.7254C21.9382 28.1317 22.1073 28.5768 22.3855 29.1256C22.4788 29.3103 22.6197 29.4053 22.8011 29.4053C22.8961 29.4053 23.0053 29.3789 23.1233 29.3261C23.2395 29.2751 23.3469 29.2048 23.4526 29.1362C23.5089 29.0992 23.5653 29.0623 23.6216 29.0289C24.2151 28.7034 24.65 28.3921 25.0286 28.0174C25.1765 27.8714 25.2998 27.6972 25.1871 27.4122C25.0814 27.1448 24.886 26.9214 24.6993 26.7068C24.6165 26.6101 24.5303 26.5116 24.4545 26.4113C24.3859 26.3198 24.3225 26.2213 24.2591 26.1246C24.1781 25.9979 24.0936 25.8677 23.9967 25.7516C23.9439 25.6883 23.8928 25.6179 23.8382 25.5423C23.7379 25.4033 23.634 25.2608 23.5125 25.1571C23.4649 25.1166 23.4244 25.0691 23.3822 25.0181C23.3117 24.9354 23.2413 24.851 23.1409 24.8017C23.1039 24.7876 23.0705 24.7824 23.0317 24.7824C22.9701 24.7824 22.9102 24.7964 22.8539 24.8105L22.8398 24.814C22.5792 24.8862 22.3256 24.9741 22.0439 25.0744C21.9611 25.1113 21.8748 25.1289 21.7921 25.1289C21.5948 25.1289 21.4452 25.0304 21.3818 24.858C21.2884 24.6434 21.3096 24.559 21.3413 24.5238C21.3624 24.4991 21.3994 24.4798 21.4557 24.464C21.8132 24.369 22.4242 24.1473 22.4947 23.7445C22.5017 23.5826 22.4119 23.4472 22.3344 23.3293L22.3168 23.303C22.2006 23.1376 22.0826 22.9634 21.9682 22.7823C21.8185 22.5465 21.6688 22.2967 21.5138 22.0206C21.4082 21.8323 21.2585 21.5966 21.0331 21.4418C20.9539 21.3873 20.8729 21.3609 20.7831 21.3609L20.7778 21.3644ZM10.6896 23.1341C10.4607 23.1341 10.3462 23.3223 10.2371 23.5052C10.2054 23.5563 10.1737 23.609 10.1402 23.6583C9.89192 24.0154 9.63835 24.3742 9.3883 24.7226C8.9833 25.289 8.56068 25.8677 8.13278 26.443C7.98839 26.6365 7.83695 26.83 7.6908 27.0164L7.56578 27.1765C7.4249 27.3559 7.18894 27.6568 7.2629 27.8766C7.35447 28.1458 7.65734 28.3217 7.90211 28.4624C7.94085 28.4853 7.97958 28.5064 8.0148 28.5275L8.18737 28.6331C8.28246 28.6911 8.37931 28.7492 8.4744 28.8072C8.78079 28.9937 9.1136 29.1907 9.45698 29.3719C9.49043 29.3895 9.52389 29.4088 9.55911 29.4282C9.76514 29.5408 10.0011 29.6692 10.2212 29.6692C10.3885 29.6692 10.5258 29.5935 10.628 29.444C10.8023 29.1872 10.8587 28.867 10.9132 28.5592C10.9256 28.4923 10.9361 28.4255 10.9502 28.3604C11.0136 28.042 10.591 27.7658 10.3603 27.6937C10.3057 27.6761 10.2494 27.6691 10.193 27.6691C10.0451 27.6691 9.91657 27.7254 9.83909 27.8256C9.81972 27.852 9.80388 27.8802 9.78803 27.9065C9.76338 27.9505 9.73872 27.991 9.70351 28.0156C9.67533 28.035 9.63835 28.0455 9.58376 28.049C9.57496 28.049 9.56616 28.049 9.55735 28.049C9.29146 28.049 8.8301 27.8116 8.81073 27.5582C8.80721 27.4597 8.87588 27.37 8.9428 27.2838L8.9516 27.2715C9.04845 27.1237 9.14706 26.9953 9.24215 26.8704L9.31259 26.7772C9.36893 26.6875 9.45346 26.6435 9.57144 26.6435C9.78451 26.6435 10.0504 26.7807 10.2071 26.8634L10.223 26.8704C10.4625 26.9953 10.709 27.1079 10.9485 27.217L11.1087 27.2909C11.2056 27.3348 11.3077 27.3841 11.3992 27.4474C11.5419 27.5442 11.6282 27.6497 11.6634 27.7711C11.7215 27.9699 11.6863 28.2109 11.6511 28.4431C11.637 28.5345 11.6246 28.6207 11.6176 28.7052C11.5859 29.0781 11.6792 29.2523 11.9997 29.4264C12.1247 29.5021 12.2903 29.5478 12.4435 29.5478C12.5967 29.5478 12.7287 29.5021 12.8132 29.4176C12.8872 29.3437 12.9242 29.2417 12.9242 29.1168C12.9295 28.8442 12.9277 28.5627 12.9242 28.2918C12.9207 27.9013 12.9171 27.4967 12.9383 27.1026C12.9576 26.881 12.8044 26.6875 12.6442 26.596C12.5385 26.5344 12.4206 26.501 12.3061 26.4694L12.2727 26.4606C11.9592 26.3708 11.6475 26.2653 11.3464 26.1457L11.2372 26.1035C11.0119 26.0155 10.7565 25.917 10.5646 25.7868C10.4977 25.7411 10.422 25.6918 10.3938 25.6391C10.304 25.4174 10.4589 25.2221 10.6086 25.0339L10.6456 24.9882C10.6808 24.9424 10.7143 24.8879 10.7495 24.8281C10.8393 24.6803 10.9309 24.5273 11.0752 24.5097C11.0946 24.5079 11.114 24.5062 11.1351 24.5062C11.2777 24.5062 11.4257 24.5642 11.5665 24.6205C11.6387 24.6487 11.7074 24.6768 11.7743 24.6944C11.8201 24.705 11.8465 24.719 11.8588 24.7384C11.8782 24.77 11.8624 24.8281 11.8448 24.8967C11.799 25.0726 11.7268 25.34 12.1899 25.5529C12.2304 25.5704 12.2674 25.5898 12.3043 25.6091C12.3924 25.6549 12.4752 25.7006 12.5667 25.7006C12.6424 25.7006 12.7129 25.669 12.7816 25.6056C12.9929 25.4104 12.9858 25.1887 12.9788 24.953C12.9788 24.9196 12.977 24.8862 12.9752 24.8527C12.9752 24.8017 12.9753 24.7454 12.9788 24.6874C12.9858 24.4798 12.9946 24.2458 12.8837 24.0752C12.7322 23.843 12.373 23.7234 12.086 23.6266C12.0279 23.6073 11.9733 23.5879 11.924 23.5703C11.7761 23.5158 11.6299 23.4578 11.4838 23.3997C11.2848 23.3205 11.0805 23.2396 10.8745 23.1693C10.8093 23.1464 10.7495 23.1358 10.6931 23.1358L10.6896 23.1341ZM2.29893 18.1505C2.08234 18.1505 1.8904 18.154 1.71255 18.1628C1.58401 18.1681 1.26881 18.2068 1.11033 18.4214C0.967693 18.6132 1.01171 18.8999 1.07335 19.155C1.27233 19.9782 1.50477 20.8543 1.85342 21.6969C2.13341 22.3706 2.46974 23.025 2.85714 23.6425C3.27447 24.3092 3.79217 24.9671 4.35214 25.5405C4.45779 25.6496 4.56521 25.7516 4.70432 25.8026C4.76419 25.8255 4.82934 25.8361 4.89273 25.8361C4.98606 25.8361 5.07587 25.8114 5.14982 25.7639C5.24491 25.7024 5.36113 25.5775 5.44213 25.4473C5.55131 25.2732 5.583 25.1166 5.53546 25.0058C5.50729 24.9389 5.4527 24.8897 5.40339 24.8457C4.80469 24.3021 4.27114 23.6829 3.8133 23.0057C3.43471 22.4445 3.10894 21.8446 2.84833 21.2219C2.71802 20.9106 2.60004 20.5886 2.50143 20.2685C2.48559 20.2175 2.46622 20.1612 2.44508 20.1031C2.36056 19.8674 2.26371 19.6 2.36937 19.403C2.431 19.2869 2.57715 19.2711 2.72507 19.2711C2.74972 19.2711 2.77437 19.2711 2.79726 19.2711C2.82016 19.2711 2.84129 19.2711 2.86066 19.2711H3.6425C3.74287 19.2693 3.84676 19.2658 3.95065 19.2605C4.05631 19.257 4.16724 19.2517 4.2729 19.2517C4.38736 19.2517 4.48597 19.257 4.57401 19.2675C4.5881 19.2675 4.60395 19.2693 4.61803 19.2693C4.76243 19.2693 4.91386 19.1866 5.00895 19.0547C5.097 18.9333 5.12341 18.7943 5.08291 18.6694C4.9438 18.388 4.77827 18.2015 4.41905 18.1857C4.20598 18.1751 3.99115 18.1751 3.78513 18.1751C3.54741 18.1751 3.30264 18.1699 3.06668 18.1646C2.81487 18.1593 2.55602 18.154 2.30069 18.154L2.29893 18.1505ZM10.6456 1.79253C10.4836 1.79253 10.3251 1.86466 10.1701 1.93502C10.0715 1.979 9.97996 2.02122 9.8884 2.04409C9.76337 2.07223 9.6542 2.13908 9.54855 2.20417C9.46931 2.25342 9.39535 2.29916 9.31611 2.3273C9.1858 2.3748 9.06958 2.44516 8.95688 2.51201C8.89701 2.54719 8.83714 2.58238 8.77551 2.6158C8.56949 2.72486 8.37051 2.85328 8.17857 2.97817C8.17857 2.97817 8.01832 3.08196 7.99015 3.10131C7.91795 3.14881 7.844 3.19455 7.77004 3.24204C7.41786 3.46545 7.05335 3.69589 6.76809 4.01605C6.49515 4.32214 6.73815 4.7584 6.91424 5.07855C6.94594 5.1366 6.97763 5.1929 7.00229 5.24215C7.03398 5.30196 7.06216 5.36529 7.08857 5.4251C7.12027 5.49898 7.15373 5.57462 7.19599 5.64675C7.21536 5.68017 7.23473 5.71359 7.2541 5.74526C7.31749 5.84905 7.38088 5.95811 7.43019 6.06893C7.66967 6.6213 7.91091 7.08746 8.168 7.49557C8.31944 7.73481 8.47968 7.96174 8.64344 8.16931C8.67866 8.21329 8.71388 8.26079 8.7491 8.30653C8.85299 8.44198 8.95864 8.58271 9.09071 8.69705C9.2263 8.81491 9.36541 8.87472 9.50452 8.87472C9.52565 8.87472 9.54678 8.87472 9.56968 8.86944C9.5732 8.86944 9.57672 8.86944 9.58024 8.86592C9.90425 8.73399 10.2318 8.59502 10.5487 8.45957C11.0119 8.26079 11.4926 8.05673 11.968 7.87378C12.2198 7.79638 12.3765 7.57825 12.3625 7.32142C12.3519 7.10505 12.2057 6.86054 11.9046 6.80073C11.8853 6.79721 11.8676 6.79545 11.8483 6.79545C11.7796 6.79545 11.7127 6.8148 11.6511 6.83591C11.4732 6.90803 11.2971 6.9784 11.1193 7.047C10.9132 7.12792 10.7019 7.2106 10.4941 7.29679C10.2582 7.40938 10.0081 7.51844 9.75105 7.51844C9.71935 7.51844 9.6859 7.51844 9.6542 7.51316C9.55559 7.48678 9.4605 7.43049 9.36717 7.34077C9.30202 7.27744 9.24215 7.20004 9.18052 7.10153C8.93575 6.70749 8.68218 6.3029 8.49377 5.87367C8.31416 5.46556 8.11165 5.00467 8.03594 4.53499C8.02009 4.43296 8.03241 4.29751 8.18385 4.23418C8.25781 4.20428 8.32824 4.1603 8.39516 4.11984C8.44975 4.08642 8.50433 4.05299 8.56068 4.02661C8.71212 3.95624 8.86355 3.8806 9.01323 3.80144C9.08719 3.76274 9.15939 3.72404 9.23158 3.68534C9.34428 3.62553 9.45698 3.56396 9.57144 3.50767C9.65948 3.46369 9.78979 3.41092 9.91129 3.41092C10.0486 3.41092 10.1314 3.48128 10.1631 3.62553L10.1754 3.69062C10.274 4.18493 10.3744 4.69683 10.3938 5.20873V5.22632C10.3973 5.31779 10.3955 5.38816 10.3409 5.40223C10.2828 5.41103 10.2089 5.42158 10.1332 5.42158C10.0257 5.42158 9.94827 5.40047 9.89368 5.35649C9.80387 5.27382 9.76337 5.14012 9.72111 4.99764C9.6947 4.91144 9.67005 4.82348 9.62955 4.74608C9.56967 4.53499 9.42704 4.40833 9.24743 4.40833C9.12417 4.40833 8.99914 4.46814 8.89525 4.57721C8.75438 4.70386 8.72268 4.89912 8.80545 5.12429C8.87588 5.3477 8.96393 5.56583 9.05021 5.77868L9.09071 5.87895C9.14002 6.01616 9.22806 6.1305 9.31435 6.24133C9.33195 6.2642 9.3478 6.28531 9.36541 6.30817C9.38478 6.33808 9.40239 6.36974 9.41824 6.40141C9.44817 6.4577 9.47987 6.51575 9.52742 6.565C9.6137 6.65472 9.73344 6.70397 9.87607 6.70397C9.95883 6.70397 10.0469 6.68638 10.1296 6.65472C10.5399 6.52455 10.9414 6.3715 11.3218 6.20263C11.5278 6.11995 11.6282 5.93524 11.5789 5.72942C11.563 5.62036 11.5243 5.51306 11.4873 5.40927C11.4468 5.29844 11.4098 5.19466 11.3975 5.08207C11.3341 4.77071 11.2777 4.45759 11.2232 4.15326C11.1879 3.95976 11.1545 3.76802 11.1175 3.57451C11.0981 3.38277 11.0858 3.18399 11.0717 2.99049C11.0541 2.71607 11.0347 2.43285 10.996 2.15667C10.9819 2.04936 10.9502 1.9016 10.841 1.83827C10.7759 1.80837 10.709 1.79429 10.6385 1.79429L10.6456 1.79253ZM13.6426 5.72942C13.4789 5.72942 13.3081 5.7822 13.1584 5.82793L13.0915 5.84729C13.0915 5.84729 13.0862 5.84905 13.0827 5.8508L13.0703 5.85784C13.0703 5.85784 13.0651 5.86136 13.0633 5.86312L13.0422 5.88071C12.9506 5.95811 12.8361 6.0531 12.8555 6.21494C12.8696 6.34687 12.889 6.48057 12.9083 6.60898C12.9171 6.67407 12.9277 6.7374 12.9365 6.80248C12.9541 6.93794 12.9788 7.07866 13.051 7.17366C13.1496 7.288 13.2957 7.35836 13.4331 7.35836C13.4947 7.35836 13.5528 7.34429 13.6057 7.31966C13.6268 7.31263 13.6567 7.30559 13.6867 7.29679C13.8187 7.26161 13.9684 7.22115 14.0459 7.09626C14.1022 7.01534 14.1234 6.90099 14.1022 6.76554L14.0969 6.73212C14.067 6.54037 14.0371 6.35919 14.0371 6.1692C14.0371 6.09708 14.03 6.0144 13.9825 5.94404C13.9737 5.93172 13.9649 5.91941 13.9561 5.9071C13.905 5.83146 13.8469 5.74702 13.7236 5.73294C13.6955 5.72943 13.6673 5.72767 13.6391 5.72767L13.6426 5.72942Z" fill="white"/>
<path d="M27.5529 26.9246C27.3187 26.9246 27.1197 26.6871 26.8697 26.3881C26.7887 26.2913 26.7059 26.191 26.6126 26.0873C26.2269 25.7196 25.9399 25.3097 25.6353 24.8752C25.5825 24.7996 25.5296 24.7239 25.475 24.6465C25.2761 24.4126 25.0947 24.1716 24.8623 23.8409C24.8235 23.7846 24.7812 23.7283 24.7355 23.6685C24.5559 23.431 24.3692 23.1847 24.4361 22.9261C24.4713 22.8012 24.584 22.7379 24.7284 22.6552C24.7777 22.6271 24.8306 22.5972 24.8834 22.5638C25.1898 22.3597 25.7022 22.022 25.5719 21.5839C25.5015 21.3711 25.262 21.1301 24.9978 21.1143C24.7267 21.1143 24.5066 21.2796 24.2935 21.4379C24.2037 21.5048 24.1192 21.5681 24.0311 21.6191C23.885 21.7264 23.7564 21.781 23.6437 21.781C23.5786 21.781 23.5169 21.7634 23.4623 21.7264C23.2951 21.6209 23.1876 21.3535 23.3003 21.1635C23.4078 21.0122 23.5609 20.9102 23.7247 20.8011C23.848 20.7185 23.9765 20.6323 24.0857 20.5214C24.216 20.4124 24.3551 20.284 24.4837 20.152C24.5717 20.0605 24.6703 19.9779 24.7865 19.9779C25.0243 19.9937 25.2303 20.203 25.4134 20.386C25.4768 20.4511 25.5384 20.5126 25.5983 20.5637C25.6846 20.6498 25.7709 20.7343 25.8554 20.8187C26.0667 21.0281 26.2674 21.2251 26.477 21.4502C26.7447 21.7317 27.0634 21.9885 27.3698 22.2366C27.5054 22.3456 27.6445 22.4582 27.7783 22.5726C27.8276 22.6113 27.884 22.6447 27.9385 22.6781C28.0636 22.7555 28.1939 22.8347 28.2326 22.9578C28.3066 23.3325 27.9896 23.6878 27.7572 23.9464C27.6744 24.0344 27.5547 24.0889 27.4402 24.0889C27.2941 24.0889 27.1884 24.0045 27.1497 23.8567C27.1338 23.774 27.1215 23.6966 27.1092 23.6227C27.0599 23.3131 27.0211 23.0686 26.7059 22.8224C26.5809 22.6781 26.4523 22.606 26.3132 22.606C26.1072 22.606 25.9188 22.7608 25.7269 22.9349C25.4979 23.1196 25.5085 23.4134 25.7568 23.7213C26.072 24.161 26.3608 24.5164 26.6355 24.8049C26.6865 24.8541 26.7394 24.9104 26.7957 24.9702C27.0193 25.2095 27.2976 25.5085 27.6075 25.5085C27.6515 25.5085 27.6955 25.5032 27.736 25.4909C28.0548 25.359 28.2766 25.0564 28.4915 24.7644C28.5566 24.6747 28.6182 24.592 28.6816 24.5129C29.0673 24.0115 29.3508 23.5049 29.5762 23.0739C30.2946 21.8232 30.8158 20.5373 31.1258 19.2549C31.1399 19.1546 31.1715 19.0332 31.205 18.9048C31.3212 18.4615 31.4797 17.8564 30.9638 17.7086C30.8246 17.6699 30.6662 17.6629 30.5288 17.6611C30.2119 17.6611 29.8949 17.6611 29.5779 17.6611H28.296C28.0988 17.6646 27.8558 17.6664 27.6533 17.7702C27.4613 17.8652 27.3275 18.0411 27.2183 18.1959L27.1831 18.2487C26.9947 18.5301 26.7623 18.8802 26.9929 19.2144C27.162 19.4624 27.3909 19.7034 27.7131 19.9691C27.8892 20.1538 28.1023 20.3578 28.3171 20.437L28.3277 20.4405C28.377 20.4599 28.4281 20.4704 28.4774 20.4704C28.5813 20.4704 28.6781 20.4264 28.7574 20.3438C28.8648 20.2312 28.9264 20.057 28.9194 19.8882C28.9106 19.6014 28.6869 19.4343 28.4879 19.2865C28.4105 19.2285 28.3365 19.174 28.2766 19.1141C28.208 19.0403 28.1727 18.9558 28.1851 18.8943C28.1939 18.852 28.2238 18.8204 28.2749 18.7975C28.34 18.7676 28.4369 18.7641 28.502 18.7641C28.5249 18.7641 28.5478 18.7641 28.5689 18.7641C28.6517 18.7658 28.738 18.7676 28.8243 18.7676C28.8859 18.7676 29.136 18.7676 29.1993 18.7676C29.2451 18.7676 29.2927 18.7676 29.3384 18.7676H29.3561C29.5691 18.7694 29.7892 18.7711 29.8949 18.8679C30.0974 19.0719 29.9724 19.415 29.8632 19.7175C29.8315 19.8055 29.8016 19.8864 29.7822 19.962C29.6484 20.4159 29.4899 20.8346 29.312 21.204C29.2169 21.4168 29.0144 21.6297 28.7732 21.6297C28.7063 21.6297 28.6394 21.6138 28.5742 21.5804C28.1446 21.3693 27.7237 21.058 27.2852 20.6287C26.7482 20.2312 26.3326 19.6841 25.961 19.1528C25.7568 18.8098 25.9927 18.4773 26.2217 18.1554C26.2833 18.0692 26.3396 17.9883 26.3872 17.9092C26.4312 17.8423 26.4752 17.7702 26.521 17.6963C26.6478 17.4887 26.7799 17.2724 26.9507 17.0982C27.1303 16.9117 27.3962 16.8959 27.6744 16.8959H27.7184C27.9297 16.8959 28.141 16.8977 28.3523 16.8977C28.6728 16.8977 28.9951 16.8977 29.3156 16.8941C29.636 16.8906 29.9583 16.8906 30.2805 16.8906C30.8616 16.8906 31.3353 16.8959 31.7685 16.9065C31.9058 16.9135 32.0133 16.9592 32.0855 17.0437C32.1893 17.165 32.2263 17.3673 32.1964 17.647C32.126 18.4721 31.971 19.2865 31.7333 20.0676C31.3881 21.3553 30.9514 22.4582 30.3985 23.4398C29.717 24.5709 28.9986 25.5806 28.2608 26.4426C27.972 26.7733 27.7484 26.9281 27.5564 26.9281L27.5529 26.9246Z" fill="white"/>
<path d="M28.2558 14.2361C28.2382 14.2361 28.2188 14.2361 28.1994 14.2326C28.0991 14.2203 27.9969 14.2186 27.9212 14.2186C27.8772 14.2186 27.8349 14.2186 27.7909 14.2186C27.7486 14.2186 27.7064 14.2186 27.6623 14.2186C27.5074 14.2186 27.3419 14.2115 27.1869 14.1587C27.1041 14.1236 27.0214 14.0497 26.9333 13.9353L26.9263 13.9265C26.4332 13.2774 25.9243 12.6072 25.3432 12.0126C25.2235 11.8913 25.0932 11.7734 24.9664 11.6608C24.7657 11.4814 24.5579 11.2949 24.3924 11.0838C24.3695 11.0539 24.3431 11.024 24.3166 10.9923C24.1969 10.8499 24.0719 10.7039 24.0983 10.5332C24.1106 10.4488 24.1494 10.3608 24.2198 10.257C24.3043 10.1339 24.4082 10.0213 24.5103 9.91225C24.5861 9.82958 24.6653 9.74514 24.7375 9.65542C24.7991 9.57626 24.8572 9.49182 24.9118 9.41091C24.9893 9.29656 25.0685 9.1787 25.1619 9.07668C25.2446 8.98696 25.3168 8.94122 25.389 8.93067C25.4014 8.93067 25.4119 8.92891 25.4242 8.92891C25.5317 8.92891 25.6373 8.99927 25.7359 9.07316C26.2677 9.46544 26.7361 9.83133 27.0584 10.3274C27.1834 10.5191 27.2186 10.6775 27.1623 10.7971C27.1059 10.9149 26.9686 10.9589 26.8594 10.9589C26.8066 10.9589 26.7537 10.9501 26.7079 10.9325C26.5354 10.8692 26.4015 10.7232 26.273 10.5807C26.1286 10.4224 25.9842 10.2764 25.794 10.2148C25.7412 10.1972 25.6901 10.1902 25.6408 10.1902C25.6039 10.1902 25.5686 10.1955 25.5334 10.2043C25.4647 10.2236 25.3978 10.2658 25.3327 10.3309C25.22 10.4417 25.1601 10.5702 25.1654 10.6933C25.1724 10.8569 25.2834 10.9853 25.3978 11.1032C25.4436 11.1489 25.4876 11.1964 25.5334 11.2421C25.7483 11.462 25.9701 11.689 26.1603 11.937L26.8523 12.8535C26.9738 13.0136 27.1851 13.2 27.3806 13.2C27.4757 13.2 27.5549 13.1561 27.613 13.0716C27.7469 12.8781 27.7522 12.6037 27.7574 12.3627C27.7574 12.317 27.7592 12.2712 27.761 12.2272C27.7574 11.9739 27.8015 11.8103 27.9018 11.7083C28.0427 11.5641 28.2998 11.5517 28.6203 11.55H28.8897C29.094 11.55 29.2982 11.5517 29.5025 11.5517C29.742 11.5517 29.9814 11.5517 30.2192 11.5482C30.3195 11.543 30.6224 11.5271 30.6981 11.3072C30.7457 11.1771 30.6981 10.9853 30.6471 10.8024C30.596 10.5614 30.4886 10.3397 30.3829 10.1251C30.3565 10.0723 30.3319 10.0196 30.3072 9.96679C30.1417 9.56747 29.9392 9.1101 29.6662 8.73365C29.6029 8.64042 29.5483 8.53487 29.4937 8.4346C29.4197 8.29563 29.3422 8.15138 29.2401 8.02121C29.2031 7.96844 29.1556 7.89455 29.101 7.81012C28.851 7.41783 28.4724 6.82501 28.0762 6.82501C27.9459 6.82501 27.8261 6.88834 27.7169 7.01324L27.7081 7.02203C27.3577 7.40024 27.3612 7.6342 27.7257 8.01945C27.9793 8.3572 28.3086 8.75652 28.6062 9.08371C28.902 9.381 29.0975 9.77504 29.175 10.2271C29.1785 10.2799 29.1679 10.3204 29.1415 10.3468C29.0922 10.3995 28.9865 10.4048 28.8985 10.4048C28.8562 10.4048 28.8122 10.4048 28.7682 10.4013H28.7418C28.6537 10.3942 28.5851 10.3819 28.5269 10.3591C28.3421 10.2799 28.2188 10.1093 28.0991 9.94216C28.0233 9.83661 27.9459 9.72755 27.8525 9.64311C27.8279 9.6132 27.7979 9.5745 27.7662 9.5358C27.6571 9.39859 27.5338 9.24203 27.3912 9.14C27.245 8.9553 27.0636 8.7917 26.8893 8.63162C26.8224 8.57005 26.7555 8.51024 26.6921 8.44867C26.0318 7.81891 26.1321 7.6817 26.4332 7.27534C26.5336 7.13989 26.6569 6.97102 26.7766 6.74937C27.002 6.31663 27.1746 6.00351 27.4986 5.60771C27.5285 5.56725 27.5532 5.52503 27.5778 5.48457C27.6271 5.40189 27.6729 5.32449 27.7522 5.27875C27.8103 5.24005 27.8772 5.2207 27.9511 5.2207C28.0797 5.2207 28.2065 5.28227 28.2804 5.38078C28.4389 5.56725 28.5939 5.76251 28.7435 5.95249C28.8844 6.13192 29.0306 6.31839 29.1802 6.49254C29.3898 6.70891 29.5659 6.93408 29.6751 7.12758C30.0343 7.69577 30.4076 8.30091 30.721 8.88669C30.7897 9.04149 30.8619 9.19805 30.9341 9.35462C31.1419 9.80143 31.355 10.2641 31.5099 10.7408C31.5398 10.8446 31.5715 10.9484 31.6015 11.0539C31.8568 11.9176 32.1209 12.8095 32.1967 13.7207C32.2231 13.9072 32.2037 14.0321 32.1386 14.1077C32.0787 14.1763 31.973 14.2098 31.8128 14.2098C31.7934 14.2098 31.774 14.2098 31.7547 14.2098C31.7494 14.2098 31.4095 14.2098 31.2458 14.2098C31.075 14.2098 30.9042 14.2098 30.7334 14.2098C30.5097 14.2098 30.2861 14.2098 30.0625 14.2062H30.0466C29.9198 14.2062 29.8194 14.1693 29.7578 14.1007C29.6962 14.0303 29.6715 13.9265 29.6856 13.7964C29.6856 13.4322 29.8811 13.3619 30.2174 13.3619C30.272 13.3619 30.3283 13.3636 30.3847 13.3654C30.4428 13.3671 30.4992 13.3689 30.5555 13.3689C30.6189 13.3689 30.6717 13.3671 30.7193 13.3619C30.9147 13.3496 31.1524 13.3073 31.2458 13.0945C31.3021 12.959 31.288 12.8025 31.2106 12.6617C31.1225 12.5069 30.9728 12.3979 30.8108 12.3733C30.6171 12.3504 30.4111 12.3398 30.1452 12.3398C30.0202 12.3398 29.8934 12.3416 29.7684 12.3451C29.6434 12.3469 29.5183 12.3486 29.3933 12.3486C29.337 12.3486 29.2806 12.3486 29.2225 12.3486H29.1926C28.9795 12.3486 28.8175 12.4102 28.7083 12.5316C28.5886 12.6653 28.5428 12.8711 28.571 13.1262C28.5974 13.4129 28.6027 13.6891 28.5833 13.9424C28.5798 14.1922 28.379 14.2291 28.2593 14.2291L28.2558 14.2361Z" fill="white"/>
<path d="M3.95056 14.2348C3.83082 14.2348 3.63183 14.1978 3.62831 13.9498C3.6107 13.693 3.61422 13.4186 3.64064 13.1301C3.67057 12.875 3.62303 12.6709 3.50329 12.5372C3.39411 12.4159 3.23211 12.3543 3.01904 12.3543H2.98735C2.931 12.3543 2.87465 12.356 2.8183 12.356C2.69328 12.356 2.56825 12.3543 2.44323 12.3525C2.31821 12.3508 2.19142 12.3473 2.0664 12.3473C1.79874 12.3473 1.59448 12.3578 1.40254 12.3807C1.23701 12.4071 1.0891 12.5144 1.00105 12.6692C0.921813 12.8099 0.909487 12.9665 0.964075 13.1002C1.0574 13.313 1.29512 13.3552 1.49234 13.3675C1.53813 13.3728 1.59095 13.3746 1.65435 13.3746C1.7107 13.3746 1.7688 13.3728 1.82515 13.3711C1.8815 13.3711 1.93785 13.3675 1.99244 13.3675C2.32877 13.3675 2.52247 13.4379 2.52423 13.7968C2.54008 13.9305 2.51542 14.036 2.45203 14.1046C2.3904 14.1732 2.29179 14.2102 2.16325 14.2102H2.14916C1.92376 14.2119 1.70013 14.2137 1.4765 14.2137C1.30569 14.2137 1.13488 14.2137 0.964075 14.2137C0.795029 14.2137 0.625982 14.2137 0.456936 14.2137C0.434044 14.2137 0.414674 14.2137 0.395305 14.2137C0.236824 14.2137 0.129409 14.1802 0.0695388 14.1116C0.00438557 14.036 -0.0149846 13.9111 0.0114288 13.7264C0.0871474 12.8134 0.351283 11.9198 0.606613 11.0578C0.638309 10.9523 0.668244 10.8485 0.698179 10.7447C0.851377 10.2697 1.06621 9.8071 1.27399 9.36028C1.34619 9.20372 1.41839 9.04716 1.48882 8.88884C1.8005 8.30657 2.17381 7.70144 2.53127 7.135C2.64221 6.93974 2.81654 6.71458 3.02609 6.50172C3.17576 6.32405 3.32192 6.13759 3.46455 5.95816C3.61422 5.76817 3.76918 5.57115 3.9259 5.38821C4.00162 5.28618 4.12665 5.22461 4.25695 5.22461C4.32915 5.22461 4.39782 5.24396 4.45241 5.2809C4.53341 5.3284 4.5792 5.4058 4.6285 5.48848C4.65315 5.52894 4.67781 5.57115 4.70598 5.60986C5.03351 6.00566 5.20432 6.32054 5.42971 6.75328C5.54945 6.97669 5.67271 7.1438 5.77309 7.27925C6.07244 7.68561 6.17457 7.82282 5.51423 8.45258C5.45084 8.51415 5.38393 8.57396 5.31701 8.63553C5.14268 8.79385 4.96131 8.9592 4.8134 9.14391C4.669 9.24594 4.5475 9.4025 4.43832 9.53971C4.40663 9.57841 4.37669 9.61711 4.34852 9.65229C4.25871 9.73321 4.18123 9.84228 4.10552 9.94783C3.98577 10.1132 3.86251 10.2856 3.67586 10.3647C3.61775 10.3876 3.54907 10.3999 3.46103 10.4052H3.43637C3.39235 10.4087 3.34833 10.4105 3.30607 10.4105C3.21802 10.4105 3.11237 10.4034 3.06306 10.3524C3.03665 10.3243 3.02609 10.2838 3.03137 10.2275C3.10709 9.78071 3.30431 9.38667 3.59838 9.08938C3.89773 8.76042 4.22702 8.36111 4.48235 8.01984C4.84509 7.63811 4.84861 7.40415 4.49643 7.02594L4.48763 7.01714C4.38022 6.89225 4.25871 6.82892 4.13017 6.82892C3.73397 6.82892 3.35537 7.42174 3.10533 7.81402C3.05074 7.89846 3.00495 7.97234 2.96621 8.02687C2.86584 8.15529 2.78836 8.29954 2.71441 8.43851C2.65982 8.53878 2.60347 8.64432 2.54008 8.73931C2.26714 9.11401 2.0664 9.57313 1.89911 9.97245C1.87446 10.0235 1.84981 10.0762 1.82339 10.129C1.7195 10.3436 1.61032 10.5653 1.55926 10.808C1.50819 10.9892 1.46241 11.181 1.50995 11.3111C1.58567 11.5293 1.88678 11.5451 1.98716 11.5504C2.22664 11.5539 2.46612 11.5539 2.7056 11.5539C2.90987 11.5539 3.11413 11.5539 3.31839 11.5539H3.58957C3.91006 11.5539 4.16715 11.568 4.30802 11.7122C4.40663 11.8142 4.45241 11.9778 4.44889 12.2276C4.45065 12.2734 4.45241 12.3191 4.45241 12.3648C4.4577 12.6058 4.46298 12.8803 4.59681 13.0738C4.65492 13.1564 4.73416 13.2022 4.82924 13.2022C5.0247 13.2022 5.23601 13.0157 5.35751 12.8556L6.04955 11.9391C6.23796 11.6929 6.45984 11.4642 6.67643 11.2443C6.72221 11.1986 6.76623 11.1528 6.81201 11.1053C6.92647 10.9875 7.03741 10.859 7.04445 10.6954C7.04974 10.5723 6.98987 10.4439 6.87717 10.3331C6.81025 10.268 6.7451 10.2258 6.67643 10.2064C6.64297 10.1976 6.60775 10.1923 6.57077 10.1923C6.52147 10.1923 6.4704 10.2011 6.41757 10.217C6.2274 10.2785 6.08124 10.4245 5.93861 10.5829C5.81006 10.7236 5.67624 10.8696 5.50367 10.9347C5.45612 10.9523 5.4033 10.9611 5.35223 10.9611C5.24306 10.9611 5.1057 10.9189 5.04936 10.7992C4.99301 10.6814 5.02647 10.5231 5.15325 10.3313C5.47725 9.83524 5.94389 9.4711 6.47568 9.07706C6.57429 9.00494 6.67819 8.93282 6.78736 8.93282C6.79793 8.93282 6.81026 8.93282 6.82258 8.93458C6.89478 8.94513 6.96873 8.99263 7.04974 9.08058C7.14306 9.18261 7.22406 9.30047 7.29978 9.41481C7.35437 9.49573 7.41248 9.58017 7.47411 9.65933C7.54455 9.74905 7.62379 9.83348 7.70127 9.91616C7.8034 10.0252 7.90729 10.1378 7.99182 10.2609C8.06225 10.363 8.10099 10.4509 8.11332 10.5371C8.13797 10.7078 8.01471 10.8538 7.89497 10.9963C7.86855 11.0279 7.84214 11.0578 7.81925 11.0877C7.65372 11.2988 7.44594 11.4835 7.2452 11.6647C7.11841 11.7773 6.9881 11.8952 6.86836 12.0165C6.28903 12.6111 5.77837 13.2813 5.28532 13.9305L5.27827 13.9392C5.19199 14.0536 5.10747 14.1275 5.02294 14.1644C4.86974 14.2154 4.70422 14.2225 4.54926 14.2225C4.507 14.2225 4.46474 14.2225 4.42072 14.2225C4.37669 14.2225 4.33443 14.2225 4.29041 14.2225C4.21293 14.2225 4.11256 14.2225 4.01043 14.2365C3.99282 14.2365 3.97345 14.2383 3.95584 14.2383L3.95056 14.2348Z" fill="white"/>
<path d="M21.5597 8.9584C21.44 8.9584 21.3255 8.91794 21.2533 8.85109C21.1441 8.74027 21.1776 8.59954 21.2163 8.4377C21.2533 8.2829 21.2956 8.10523 21.1793 7.95922C21.0807 7.83609 20.9434 7.78683 20.8096 7.74109C20.7603 7.7235 20.7127 7.70767 20.6669 7.68656C20.5613 7.63027 20.4539 7.59861 20.3588 7.59861C20.2302 7.59861 20.1246 7.6549 20.0506 7.7622L20.0189 7.8009C19.9326 7.90821 19.8446 8.02079 19.7178 8.07533C19.6615 8.10523 19.5998 8.11754 19.5241 8.11754C19.4061 8.11754 19.2741 8.08412 19.1455 8.05246C19.105 8.0419 19.0645 8.03135 19.0258 8.02255C18.862 7.98209 18.6683 7.93635 18.4693 7.89765C18.4077 7.88358 18.3408 7.87303 18.2739 7.86247C18.1119 7.83784 17.9463 7.81322 17.8336 7.71119C17.7509 7.61971 17.7104 7.42269 17.7298 7.19753C17.7474 6.98116 17.8178 6.79469 17.9094 6.72433C17.9604 6.68563 18.0344 6.66628 18.1348 6.66628C18.1647 6.66628 18.1964 6.66628 18.2298 6.67155C18.2774 6.67683 18.3267 6.68211 18.3778 6.68738C18.5222 6.70322 18.6718 6.72081 18.8197 6.72081C19.0557 6.72081 19.2371 6.67859 19.3903 6.58536C19.7372 6.33381 19.8463 5.91689 19.952 5.51406C19.9749 5.4261 19.9978 5.3399 20.0224 5.25547C20.0453 5.12529 20.0717 4.99688 20.0982 4.87374C20.1598 4.58349 20.2232 4.28268 20.2249 3.98187V3.96428C20.2302 3.39081 19.7055 3.24656 19.2829 3.13046L19.2212 3.11287L19.1807 3.10056C19.0434 3.0601 18.9025 3.01788 18.7704 3.01788C18.6965 3.01788 18.6349 3.03019 18.5803 3.05834C18.4517 3.12167 18.3531 3.26591 18.3126 3.45238C18.2668 3.6582 18.3003 3.86401 18.4007 3.98715C18.4729 4.0751 18.575 4.12084 18.6754 4.16306C18.7599 4.2 18.8391 4.23342 18.8972 4.29148C19.0804 4.4709 19.0293 4.82976 18.9923 5.09011L18.9835 5.14992C18.943 5.45249 18.7916 5.5985 18.5222 5.5985C18.4869 5.5985 18.45 5.59674 18.413 5.59146C18.3637 5.58794 18.3126 5.58618 18.2615 5.58442C18.089 5.57739 17.9111 5.57211 17.8125 5.48767C17.6734 5.34694 17.691 5.12529 17.7069 4.91068C17.7139 4.81745 17.7209 4.71894 17.7157 4.63098C17.7192 4.28796 17.7192 3.93438 17.7192 3.59135C17.7192 3.2448 17.7192 2.88595 17.7227 2.53412C17.728 2.39867 17.7421 2.26146 17.816 2.17878C17.8812 2.11545 17.9728 2.08203 18.0943 2.08203C18.207 2.08203 18.3267 2.10842 18.4412 2.13305C18.4834 2.14184 18.5257 2.1524 18.5644 2.15943L18.7335 2.19461C19.0733 2.26498 19.4237 2.3371 19.7583 2.44089C19.8235 2.45672 19.8869 2.4708 19.9485 2.48663C20.1475 2.53412 20.3552 2.58162 20.5489 2.64847C20.5736 2.6555 20.5965 2.6643 20.6211 2.67133C20.7268 2.703 20.8342 2.73466 20.8941 2.80679C20.9346 2.85428 20.9504 2.94048 20.9416 3.06362C20.9205 3.35915 20.8976 3.69338 20.843 4.01354C20.8025 4.21056 20.7673 4.40758 20.7356 4.59932C20.6669 5.0004 20.6018 5.38037 20.4697 5.76913C20.4486 5.87292 20.4098 5.97143 20.3676 6.07697C20.2989 6.25289 20.2267 6.43583 20.2478 6.6223C20.2725 6.73136 20.3552 6.81756 20.4979 6.88968C20.6933 6.98643 20.9117 7.05328 21.1019 7.10957C21.2692 7.15531 21.4224 7.21864 21.5844 7.28548C21.6618 7.31715 21.7411 7.35057 21.8238 7.38047C22.058 7.46139 22.3257 7.57925 22.3398 7.79562C22.3539 8.01727 22.2183 8.21077 22.088 8.39724C22.0369 8.47112 21.9823 8.54853 21.9401 8.62417C21.9242 8.65055 21.9084 8.6787 21.8925 8.70685C21.8309 8.81767 21.7781 8.91442 21.6566 8.94609C21.6231 8.95312 21.5879 8.9584 21.5509 8.9584H21.5597Z" fill="white"/>
<path d="M21.335 12.2868L21.3444 12.2887L21.3406 12.2773L21.335 12.2868Z" fill="white"/>
<path d="M18.8304 24.0627C18.7459 24.0627 18.679 24.0258 18.6332 23.9519C18.5346 23.7936 18.5504 23.5103 18.6279 23.3555C18.6596 23.3098 18.7318 23.2904 18.7987 23.2781C19.2143 23.1955 19.6193 23.0495 20.012 22.9087C20.1352 22.8647 20.2603 22.8208 20.3835 22.7768C20.4628 22.7504 20.5297 22.7363 20.586 22.7363C20.6741 22.7363 20.741 22.768 20.7885 22.8331C20.8801 22.9527 20.9717 23.0934 20.9699 23.2201C20.9629 23.5227 20.5984 23.6458 20.3325 23.7355L20.2567 23.7619C19.8834 23.8921 19.5101 23.9536 19.1174 24.0205C19.0435 24.0328 18.9695 24.0451 18.8956 24.0574H18.8815C18.8639 24.0609 18.8463 24.0627 18.8304 24.0627Z" fill="white"/>
<path d="M16.165 18.7579C15.1296 18.7579 14.2192 18.3251 13.6698 17.5722C13.175 16.895 12.9795 16.2423 13.0147 15.3909C13.0147 15.3839 13.0147 15.3786 13.0147 15.3716C13.013 14.9969 13.1116 14.594 13.293 14.2369C13.2965 14.2299 13.3 14.2229 13.3035 14.2158C13.4603 13.8587 13.6997 13.5175 13.9463 13.3011C13.9498 13.2976 13.9709 13.2782 13.9727 13.2765C14.5749 12.6766 15.3761 12.3477 16.2301 12.3477C16.9592 12.3477 17.6688 12.5816 18.2781 13.0249C19.0493 13.6283 19.5019 14.638 19.4596 15.6653C19.3874 16.4728 19.1251 17.1606 18.7007 17.6567C18.6954 17.6619 18.6919 17.669 18.6866 17.6742C18.4454 17.9891 18.0791 18.2125 17.7516 18.3884C17.5403 18.5063 17.3096 18.5802 17.0278 18.6541C16.7514 18.7227 16.4608 18.7596 16.1685 18.7596L16.165 18.7579ZM13.6082 16.8404C14.0678 17.8308 15.1208 18.4958 16.2301 18.4958C16.2706 18.4958 16.3094 18.4957 16.3481 18.494C17.049 18.4641 17.7322 18.2161 18.1724 17.8343C18.9402 17.1694 19.3293 16.0805 19.1444 15.1253C19.0194 14.4832 18.7429 13.9045 18.3661 13.4999C18.1935 13.3134 17.9717 13.1727 17.778 13.0478C17.7375 13.0214 17.697 12.995 17.6618 12.9721C17.6441 12.9598 17.6265 12.951 17.6072 12.9422C17.1757 12.7399 16.7091 12.6344 16.2618 12.6344C16.1104 12.6344 15.9607 12.6467 15.8128 12.6713C15.3462 12.7171 14.9324 12.8736 14.5502 13.1498L14.5397 13.1586C14.3108 13.324 14.1312 13.484 13.992 13.6441C13.9815 13.6564 13.9709 13.6705 13.9621 13.6846C13.7367 14.0206 13.5729 14.3073 13.4603 14.5589C13.4532 14.5747 13.4462 14.5923 13.4409 14.6099C13.2243 15.3469 13.2877 16.2036 13.6082 16.8457V16.8404Z" fill="white"/>
<path d="M16.1278 20.4184C15.6559 20.4184 15.1805 20.3815 14.7156 20.3093C13.8105 20.1528 12.8385 19.8572 11.907 19.4544C11.3505 19.1817 10.8945 18.9038 10.4771 18.5837C10.3521 18.4904 10.2288 18.4025 10.1091 18.3163C9.74987 18.0594 9.41178 17.8167 9.11066 17.4983C8.52781 16.9195 8.12809 16.434 7.89036 16.0118C7.68258 15.6354 7.952 15.3135 8.21261 15.0039C8.276 14.9282 8.34115 14.8508 8.3975 14.7734C9.15997 13.8077 10.2218 12.9404 11.6393 12.1207C13.0075 11.308 14.7174 10.8418 16.3321 10.8418C16.5505 10.8418 16.7688 10.8506 16.9801 10.8682C18.7991 11.0423 20.5054 11.6985 21.9142 12.7627C21.9212 12.768 21.9282 12.7715 21.937 12.7715C21.9406 12.7786 21.9441 12.7856 21.9511 12.7891C22.7664 13.3767 23.4232 14.0064 23.8987 14.6643C23.9586 14.7558 24.0378 14.8508 24.1135 14.9405C24.316 15.1815 24.5256 15.4296 24.4675 15.7356C24.4287 15.9098 24.309 16.0716 24.1699 16.2493C24.0272 16.4252 23.9075 16.5783 23.7948 16.7208C23.6257 16.9371 23.4796 17.1218 23.3017 17.3276C23.0535 17.6021 22.7365 17.8431 22.4319 18.0753C22.2135 18.2406 21.9899 18.4113 21.7909 18.5942L21.7821 18.6012C20.9738 19.2064 19.9807 19.6866 18.9136 19.9857C18.0138 20.2742 17.0752 20.4184 16.1243 20.4184H16.1278ZM16.2282 11.644C15.1646 11.644 14.1627 12.0556 13.4108 12.8032L13.4002 12.812C13.0762 13.097 12.7751 13.5227 12.5743 13.9818C12.3419 14.4392 12.2151 14.9599 12.2187 15.4436C12.1764 16.4815 12.4264 17.3136 13.0304 18.1421C13.7242 19.0938 14.8653 19.6391 16.1578 19.6391C16.5188 19.6391 16.8762 19.5951 17.2231 19.5089C17.57 19.4175 17.8553 19.326 18.1247 19.1765C18.5279 18.9583 18.9858 18.6786 19.3027 18.2635C19.8363 17.6425 20.1656 16.7876 20.2519 15.7955C20.3082 14.5095 19.7394 13.2412 18.7657 12.483C18.0102 11.9342 17.1316 11.644 16.2265 11.644H16.2282ZM12.0531 12.7117C11.8101 12.7117 11.3382 13.0776 10.8645 13.4717C10.8046 13.5227 10.7571 13.5614 10.7289 13.5825C10.5616 13.7215 10.4102 13.8815 10.2623 14.0363C10.22 14.0803 10.1795 14.1243 10.1373 14.1665L10.1285 14.1771C10.0334 14.2756 9.93829 14.3706 9.84144 14.4656C9.6002 14.7066 9.34839 14.9564 9.11595 15.2449C8.77081 15.6037 8.77081 15.9802 9.11947 16.3302C9.66711 16.9037 10.1355 17.3505 10.6338 17.7815C10.743 17.8624 10.8522 17.931 10.9561 17.9979C11.1022 18.0911 11.2414 18.1773 11.3734 18.2916C11.4703 18.3796 11.8823 18.6892 12.0883 18.6892C12.1517 18.6892 12.1852 18.6593 12.201 18.6364C12.2415 18.5749 12.2292 18.4746 12.1623 18.318C11.6851 17.3962 11.2009 15.9907 11.5918 14.5095C11.7221 14.0223 11.8524 13.6212 12.0672 13.25C12.1341 13.1339 12.238 12.9211 12.1958 12.7997C12.1746 12.7557 12.1341 12.71 12.0478 12.71L12.0531 12.7117ZM20.3029 12.6238C20.2695 12.6238 20.2431 12.6326 20.2255 12.6484C20.2219 12.6519 20.2149 12.659 20.2114 12.6625C20.1268 12.7962 20.2343 13.002 20.3293 13.1832C20.354 13.2307 20.3786 13.2764 20.3945 13.3151C20.5882 13.6652 20.7414 14.0539 20.8805 14.5465C21.1464 15.667 20.9932 16.9143 20.4596 17.968C20.3716 18.1228 20.2783 18.3339 20.3434 18.4429C20.3593 18.4711 20.3945 18.5045 20.4632 18.5045C20.5424 18.5045 20.6534 18.4588 20.7977 18.3655C21.0126 18.216 21.1711 18.0717 21.326 17.9345C21.4775 17.7991 21.6183 17.6707 21.7997 17.5493C21.9635 17.4033 22.0973 17.2678 22.2276 17.1377C22.3773 16.9864 22.5322 16.8298 22.7312 16.6592C23.5289 15.8746 23.631 15.5404 22.8386 14.6749C22.5551 14.3389 22.2311 14.0188 21.8508 13.6986L21.7504 13.6054C21.3806 13.2606 20.9985 12.9035 20.5442 12.6941C20.4931 12.6678 20.3839 12.622 20.3047 12.622L20.3029 12.6238Z" fill="white"/>
<path d="M18.195 15.9581C18.121 16.4647 17.9062 16.9573 17.4889 17.2669L17.4783 17.2757C17.0451 17.6908 16.5785 17.828 15.9798 17.719C15.4198 17.6169 14.8898 17.2968 14.5763 16.8148C14.0604 16.0249 14.1731 14.8833 14.8334 14.2095C14.8739 14.1691 14.9426 14.1304 14.9814 14.1726C14.999 14.1937 15.0007 14.2236 14.9972 14.25C14.9849 14.4118 14.9268 14.5684 14.8898 14.7267C14.7612 15.2615 14.8739 15.8772 15.2208 16.3099C15.7156 16.9291 17.1719 17.0241 17.6051 16.2571C17.6403 16.1956 17.6738 16.1358 17.709 16.0742C17.8094 15.8983 17.8622 15.6837 17.9273 15.4902C17.9678 15.367 18.0242 15.2791 18.0788 15.2879C18.2584 15.3864 18.2091 15.7769 18.195 15.9598V15.9581Z" fill="white"/>
<path d="M16.1996 14.7033C16.1397 14.5749 16.0694 14.4447 16.043 14.3023C15.9691 13.6092 16.956 13.1835 17.3588 13.8062L17.3694 13.8203C18.015 14.6488 16.817 15.5864 16.1996 14.7033Z" fill="white"/>
<path d="M42.7988 23.0568V8.86914H55.87V11.4899H45.4209V14.6427H53.8196V17.2832H45.4209V20.4361H55.87V23.0568H42.7988Z" fill="white"/>
<path d="M58.9973 27.2935V24.6924H65.8779C65.9436 24.6924 65.9962 24.6661 66.0356 24.6136C66.0882 24.5741 66.1144 24.5216 66.1144 24.4559V23.0568H59.8056C59.3193 23.0568 58.8658 22.932 58.4453 22.6824C58.0378 22.4328 57.7092 22.1044 57.4595 21.6972C57.2098 21.29 57.0849 20.8367 57.0849 20.3375V11.6673H59.6676V20.239C59.6676 20.3047 59.6873 20.3638 59.7267 20.4164C59.7793 20.4558 59.8385 20.4755 59.9042 20.4755H65.8779C65.9436 20.4755 65.9962 20.4558 66.0356 20.4164C66.0882 20.3638 66.1144 20.3047 66.1144 20.239V11.6673H68.6971V24.5741C68.6971 25.0733 68.5788 25.5266 68.3423 25.9338C68.1057 26.3542 67.7771 26.6826 67.3565 26.9191C66.9491 27.1687 66.4956 27.2935 65.9962 27.2935H58.9973Z" fill="white"/>
<path d="M72.5245 23.0568C72.025 23.0568 71.5716 22.932 71.1641 22.6824C70.7567 22.4328 70.4281 22.1044 70.1784 21.6972C69.9287 21.29 69.8038 20.8367 69.8038 20.3375V14.3472C69.8038 13.848 69.9287 13.3948 70.1784 12.9875C70.4281 12.5803 70.7567 12.2519 71.1641 12.0023C71.5716 11.7527 72.025 11.6279 72.5245 11.6279H78.6953C79.1948 11.6279 79.6482 11.7527 80.0557 12.0023C80.4763 12.2519 80.8049 12.5803 81.0414 12.9875C81.2912 13.3948 81.416 13.848 81.416 14.3472V18.6429H72.3865V20.239C72.3865 20.3047 72.4062 20.3638 72.4456 20.4164C72.4982 20.4558 72.5573 20.4755 72.6231 20.4755H81.416V23.0568H72.5245ZM72.3865 16.3177H78.8333V14.4457C78.8333 14.38 78.807 14.3275 78.7545 14.2881C78.715 14.2355 78.6625 14.2092 78.5968 14.2092H72.6231C72.5573 14.2092 72.4982 14.2355 72.4456 14.2881C72.4062 14.3275 72.3865 14.38 72.3865 14.4457V16.3177Z" fill="white"/>
<path d="M91.2942 23.0568C90.7948 23.0568 90.3348 22.932 89.9142 22.6824C89.5067 22.4328 89.1781 22.1044 88.9284 21.6972C88.6787 21.2768 88.5538 20.817 88.5538 20.3178V11.6082C88.5538 11.109 88.6787 10.6557 88.9284 10.2485C89.1781 9.82812 89.5067 9.49314 89.9142 9.24354C90.3348 8.99394 90.7948 8.86914 91.2942 8.86914H100.008C100.508 8.86914 100.961 8.99394 101.369 9.24354C101.789 9.49314 102.124 9.82812 102.374 10.2485C102.624 10.6557 102.749 11.109 102.749 11.6082V20.3178C102.749 20.817 102.624 21.2768 102.374 21.6972C102.124 22.1044 101.789 22.4328 101.369 22.6824C100.961 22.932 100.508 23.0568 100.008 23.0568H91.2942ZM91.3928 20.4361H99.8703C99.936 20.4361 99.9952 20.4164 100.048 20.3769C100.1 20.3244 100.127 20.2653 100.127 20.1996V11.7264C100.127 11.6607 100.1 11.6082 100.048 11.5687C99.9952 11.5162 99.936 11.4899 99.8703 11.4899H91.3928C91.3271 11.4899 91.2679 11.5162 91.2154 11.5687C91.1759 11.6082 91.1562 11.6607 91.1562 11.7264V20.1996C91.1562 20.2653 91.1759 20.3244 91.2154 20.3769C91.2679 20.4164 91.3271 20.4361 91.3928 20.4361Z" fill="white"/>
<path d="M104.388 23.0568V11.6279H113.279C113.779 11.6279 114.232 11.7527 114.639 12.0023C115.06 12.2519 115.389 12.5803 115.625 12.9875C115.875 13.3948 116 13.848 116 14.3472V23.0568H113.417V14.4457C113.417 14.38 113.391 14.3275 113.338 14.2881C113.299 14.2355 113.246 14.2092 113.18 14.2092H107.207C107.141 14.2092 107.082 14.2355 107.029 14.2881C106.99 14.3275 106.97 14.38 106.97 14.4457V23.0568H104.388Z" fill="white"/>
</svg>
