<svg width="20" height="20" viewBox="0 0 20 20" fill="none" xmlns="http://www.w3.org/2000/svg">
<path d="M17.8663 11.2502H17.5C17.5 9.92414 16.9732 8.65237 16.0355 7.71469C15.0979 6.777 13.8261 6.25022 12.5 6.25022H11.25V5.27834C11.7266 5.00318 12.0991 4.57843 12.3097 4.06999C12.5203 3.56155 12.5573 2.99782 12.4148 2.46623C12.2724 1.93465 11.9585 1.46492 11.5219 1.1299C11.0853 0.794875 10.5503 0.613281 10 0.613281C9.44966 0.613281 8.91471 0.794875 8.4781 1.1299C8.04149 1.46492 7.72762 1.93465 7.58519 2.46623C7.44275 2.99782 7.4797 3.56155 7.6903 4.06999C7.90091 4.57843 8.2734 5.00318 8.75 5.27834V6.25022H7.5C6.17392 6.25022 4.90215 6.777 3.96447 7.71469C3.02678 8.65237 2.5 9.92414 2.5 11.2502H2.13375C1.89936 11.2502 1.67458 11.3433 1.50884 11.5091C1.34311 11.6748 1.25 11.8996 1.25 12.134V14.1165C1.25 14.3509 1.34311 14.5756 1.50884 14.7414C1.67458 14.9071 1.89936 15.0002 2.13375 15.0002H2.5V15.6252C2.5 16.1225 2.69754 16.5994 3.04917 16.951C3.40081 17.3027 3.87772 17.5002 4.375 17.5002H15.625C16.1223 17.5002 16.5992 17.3027 16.9508 16.951C17.3025 16.5994 17.5 16.1225 17.5 15.6252V15.0002H17.8663C17.9823 15.0002 18.0972 14.9774 18.2044 14.9329C18.3117 14.8885 18.4091 14.8234 18.4912 14.7414C18.5732 14.6593 18.6383 14.5619 18.6827 14.4547C18.7271 14.3474 18.75 14.2325 18.75 14.1165V12.134C18.75 12.0179 18.7271 11.903 18.6827 11.7958C18.6383 11.6886 18.5732 11.5911 18.4912 11.5091C18.4091 11.427 18.3117 11.3619 18.2044 11.3175C18.0972 11.2731 17.9823 11.2502 17.8663 11.2502ZM6.875 13.7502C6.50416 13.7502 6.14165 13.6403 5.83331 13.4342C5.52496 13.2282 5.28464 12.9354 5.14273 12.5928C5.00081 12.2501 4.96368 11.8731 5.03603 11.5094C5.10837 11.1457 5.28695 10.8116 5.54917 10.5494C5.8114 10.2872 6.14549 10.1086 6.50921 10.0362C6.87292 9.9639 7.24992 10.001 7.59253 10.1429C7.93514 10.2849 8.22798 10.5252 8.43401 10.8335C8.64003 11.1419 8.75 11.5044 8.75 11.8752C8.75 12.3725 8.55246 12.8494 8.20083 13.201C7.84919 13.5527 7.37228 13.7502 6.875 13.7502ZM13.125 13.7502C12.7542 13.7502 12.3916 13.6403 12.0833 13.4342C11.775 13.2282 11.5346 12.9354 11.3927 12.5928C11.2508 12.2501 11.2137 11.8731 11.286 11.5094C11.3584 11.1457 11.537 10.8116 11.7992 10.5494C12.0614 10.2872 12.3955 10.1086 12.7592 10.0362C13.1229 9.9639 13.4999 10.001 13.8425 10.1429C14.1851 10.2849 14.478 10.5252 14.684 10.8335C14.89 11.1419 15 11.5044 15 11.8752C15 12.3725 14.8025 12.8494 14.4508 13.201C14.0992 13.5527 13.6223 13.7502 13.125 13.7502Z" fill="#E4BD00"/>
</svg>
