<svg width="562" height="558" viewBox="0 0 562 558" fill="none" xmlns="http://www.w3.org/2000/svg">
<path d="M303.534 557.306C298.443 557.306 294.672 556.576 292.344 555.133C289.178 521.765 289.783 487.124 290.357 453.617C290.745 431.237 291.133 408.081 290.419 385.515C289.876 381.806 290.218 379.291 291.413 377.739C293.073 375.629 296.379 375.287 300.213 374.915C302.261 374.713 304.372 374.511 306.498 374.015C367.29 363.104 422.836 322.923 447.979 271.66C448.087 271.427 448.087 271.164 447.979 270.946C426.219 230.982 387.776 197.645 345.159 181.753C325.836 172.953 304.775 168.483 282.644 168.483C231.087 168.483 176.208 193.843 139.41 234.661C133.388 240.806 127.77 247.185 122.741 253.642C119.979 257.211 117.434 260.734 115.183 264.118C114.143 265.685 112.933 267.516 111.831 269.379C111.629 269.736 111.365 270.108 111.101 270.496C110.325 271.629 109.456 272.902 109.348 274.237C109.286 274.857 109.425 275.463 109.534 275.928C110.651 282.09 115.261 287.258 119.327 291.821C119.979 292.55 120.615 293.28 121.236 293.978C126.544 300.108 132.1 306.161 137.749 311.966C155.815 330.559 176.704 345.613 199.845 356.725C221.526 367.139 244.015 373.347 266.643 375.163C270.926 375.334 271.299 379.183 271.345 384.615C271.345 385.717 271.361 386.741 271.439 387.672C271.392 419.752 271.392 451.972 271.392 484.129C271.392 505.221 271.392 526.281 271.392 547.28C271.392 551.3 271.113 555.304 267.853 556.421C221.387 556.282 171.583 539.706 127.63 509.737C125.178 507.704 122.26 505.888 119.436 504.134C112.529 499.851 106.011 495.816 104.428 488.009C104.831 483.71 108.122 480.435 111.614 476.974C113.755 474.848 115.959 472.66 117.434 470.208C132.628 450.125 145.276 433.286 157.584 415.577C160.827 412.163 163.512 407.771 166.104 403.534C170.015 397.139 174.066 390.512 180.321 386.943C180.709 386.896 181.112 386.881 181.485 386.881C185.287 386.881 188.639 388.712 192.193 390.637C193.792 391.506 195.437 392.406 197.113 393.104C207.543 397.341 219.059 401.438 232.344 405.613C238.474 408.547 237.186 437.678 236.239 458.956C235.789 469.245 235.386 478.138 235.851 482.701C235.153 485.603 235.463 491.501 235.836 498.314C236.425 509.396 237.155 523.193 233.477 527.057C232.856 527.709 232.126 528.035 231.257 528.035C230.667 528.035 230 527.88 229.271 527.585C228.076 527.104 226.555 526.933 225.065 526.762C224.149 526.654 223.28 526.561 222.551 526.406L220.89 526.033C218.22 525.428 215.458 524.791 212.711 524.341L211.749 524.171C210.352 523.922 208.769 523.627 207.232 523.627C206.146 523.627 205.23 523.767 204.439 524.078C203.244 524.528 202.514 525.428 202.39 526.623C202.235 528.175 203.166 530.022 204.594 530.937C205.541 531.543 206.627 531.869 207.589 532.163L211.361 533.296C219.54 535.764 228.014 538.309 236.627 539.675L237.62 539.83C240.181 540.249 243.083 540.715 245.908 540.715C249.105 540.715 251.682 540.11 253.808 538.868C255.329 537.968 256.415 536.633 256.757 535.174C256.912 534.522 256.912 533.902 256.927 533.281C257.036 525.459 257.176 517.668 257.3 509.861C257.486 499.634 257.657 489.064 257.765 478.666V478.263C257.936 461.842 257.921 448.154 257.765 435.195C257.657 427.807 257.502 420.575 257.284 413.684C257.176 410.099 257.036 406.514 256.881 402.928C256.85 402.183 256.834 401.454 256.834 400.756C256.772 396.736 256.726 392.934 252.504 389.954C248.221 386.943 243.115 385.779 238.179 384.661C237.093 384.413 236.022 384.18 234.967 383.916C229.364 382.535 222.845 380.906 216.498 379.183C205.339 376.141 194.878 370.786 184.759 365.603C182.68 364.532 180.6 363.477 178.505 362.421C178.443 362.39 178.365 362.359 178.303 362.359C177.667 362.25 177.046 362.188 176.425 362.188C168.851 362.188 164.195 370.74 159.679 379.012C156.963 383.994 154.402 388.681 151.407 391.211C151.36 391.257 151.314 391.304 151.283 391.351C135.266 413.435 120.77 432.835 106.942 450.637C105.111 452.856 103.404 454.967 101.82 456.907C93.688 466.933 88.7837 472.986 83.6776 472.986C78.5715 472.986 72.9688 467.538 61.5926 452.158C28.5195 414.677 7.81582 364.625 3.28398 311.174C2.81838 308.132 3.34606 305.416 4.66526 303.88C5.51886 302.871 6.72942 302.374 8.21934 302.374C8.4987 302.374 8.77807 302.39 9.07295 302.421C11.851 302.421 14.536 302.421 17.2209 302.421H33.9981C45.5139 302.421 57.8523 302.39 70.0976 302.033C71.2771 302.002 72.4877 301.924 73.7137 301.862C75.5761 301.754 77.5006 301.645 79.3941 301.645C81.8307 301.645 83.7707 301.816 85.5089 302.204C87.9921 302.731 89.9477 303.957 91.1427 305.742C92.3067 307.465 93.6414 309.063 94.9296 310.6C95.5659 311.36 96.2022 312.121 96.8075 312.881C97.7542 314.061 98.6544 315.334 99.5235 316.56C100.237 317.568 100.936 318.562 101.681 319.539C105.235 324.164 109.41 328.743 115.214 334.392C116.658 335.804 118.101 337.387 119.482 338.924C122.431 342.168 125.488 345.535 129.089 347.91L129.725 348.329C130.657 348.919 131.526 349.493 132.178 350.254C134.04 352.426 132.178 356.493 130.936 359.193C130.765 359.566 130.61 359.923 130.455 360.248C128.965 363.616 126.994 367.124 124.433 370.957C122.152 374.403 119.622 377.786 117.201 381.061C114.718 384.398 112.157 387.843 109.813 391.366C108.727 392.778 107.563 393.492 106.275 393.492C102.876 393.492 99.1665 388.572 96.4661 384.972C95.7056 383.978 95.0227 383.063 94.4329 382.364C91.2824 379.757 86.3625 372.323 87.6352 368.738C88.1318 367.372 89.5752 366.674 91.9653 366.674H92.3222C94.4329 366.751 96.2333 368.288 97.987 369.778C99.8184 371.345 101.727 372.959 104.071 372.959C105.219 372.959 106.337 372.587 107.516 371.795C112.762 368.536 114.935 363.616 113.414 358.324C111.583 351.914 104.909 347.072 97.8939 347.072C97.4438 347.072 96.9937 347.087 96.5436 347.134C95.271 347.243 93.9363 347.289 92.4619 347.289C89.7925 347.289 87.0765 347.103 84.4381 346.932C81.7841 346.762 79.0216 346.575 76.3056 346.575C75.0485 346.575 73.9 346.606 72.767 346.684C69.6785 346.901 65.4416 347.196 62.3841 349.338C56.9056 353.171 60.2113 360.202 62.3841 364.858C62.7101 365.556 63.0205 366.224 63.2843 366.813C65.2398 371.33 67.4437 375.893 69.8493 380.409C77.2833 394.299 85.5245 405.675 95.0382 415.205C99.9425 418.898 103.636 420.575 106.74 420.575C111.427 420.575 114.438 416.912 118.582 411.837C119.653 410.533 120.801 409.121 122.09 407.647C126.404 401.532 130.796 395.494 135.033 389.674C142.328 379.664 149.855 369.328 156.854 358.665C158.499 356.198 159.524 352.271 156.994 349.353C156.172 348.407 155.194 347.693 154.247 346.994C153.937 346.777 153.642 346.544 153.347 346.327C152.121 345.38 150.972 344.263 149.855 343.192L149.11 342.478C147.046 340.491 144.811 338.676 142.669 336.906C140.838 335.401 138.929 333.833 137.16 332.204C132.86 328.246 128.965 324.475 125.271 320.672C116.859 312.043 110.015 303.864 104.335 295.67C103.388 294.304 102.534 292.814 101.712 291.386C100.827 289.85 99.896 288.251 98.8406 286.746C98.0025 285.566 97.211 284.759 96.3419 284.2C94.852 283.238 92.8499 283.207 91.0806 283.192C90.584 283.192 90.1029 283.192 89.6683 283.145C87.0454 282.974 84.4225 282.85 81.7997 282.742C76.9885 282.555 71.8203 282.447 65.9848 282.416H62.9894C55.8192 282.416 48.5248 282.524 41.4787 282.617L34.1998 282.726C29.6835 282.788 25.1517 282.819 20.6353 282.819C15.6534 282.819 11.1837 282.773 7.00878 282.664C6.54318 282.726 6.23279 282.742 5.92239 282.742C2.66319 282.742 0.987021 279.995 0.505901 277.418C-0.130419 274.066 1.01806 269.798 4.33934 268.417C28.9696 267.532 46.4606 267.423 58.9542 267.423C62.0737 267.423 64.9294 267.423 67.5368 267.423C69.7561 267.423 71.7893 267.423 73.6827 267.423C96.1712 267.423 97.211 266.616 103.931 256.032C109.705 246.921 120.444 229.974 156.56 199.104L156.746 198.949C175.261 185.059 196.461 173.698 221.557 164.2C229.379 161.282 237.745 159.808 245.846 158.364C253.187 157.061 260.792 155.71 268.024 153.305C273.099 151.613 273.177 146.662 273.239 142.301C273.254 141.106 273.27 139.973 273.379 138.918C273.891 134.138 274.279 129.062 274.527 123.817C274.993 114.924 275.117 105.457 274.946 93.1182C274.837 85.6841 274.62 78.1414 274.418 70.847C274.046 57.9809 273.673 44.6648 273.875 31.5814C273.875 30.6192 273.922 29.6569 273.968 28.6947C274.03 27.2513 274.077 25.7614 274.046 24.287C273.953 18.2187 269.235 15.1302 260.016 15.1302C252.178 15.1302 242.245 17.2875 234.268 19.0102C229.147 20.1276 224.739 21.0744 222.132 21.1985C222.054 21.1985 221.976 21.214 221.899 21.2451C220.331 21.8193 218.546 22.2073 216.668 22.6419C211.019 23.9145 204.625 25.3424 203.321 32.0315C203.321 32.078 203.306 32.1401 203.321 32.1867L203.368 34.9958C203.585 49.3518 203.818 64.1889 207.512 78.2035C209.172 83.2164 214.651 86.1652 222.194 86.1652C232.576 86.1652 244.03 80.5004 244.558 72.0731C244.713 67.1222 243.999 63.9095 242.385 62.2489C241.454 61.2867 240.259 60.8211 238.722 60.8211C236.907 60.8211 234.873 61.4884 232.887 62.1248C230.978 62.7456 228.991 63.3974 227.346 63.3974C226.058 63.3974 225.111 63.0094 224.382 62.1868C222.364 59.9054 221.914 54.0078 223.063 44.6648C223.466 41.328 226.772 40.5985 231.04 39.9622C231.568 39.8846 232.08 39.807 232.561 39.7294C233.585 39.5432 234.703 39.3104 235.882 39.0776C239.141 38.4102 242.835 37.6342 246.017 37.6342C247.134 37.6342 248.143 37.7273 248.997 37.9291C252.364 38.674 252.535 41.0486 252.442 44.8976C252.147 56.9411 252.318 69.3105 252.489 81.2764C252.752 99.4969 253.032 118.354 251.604 136.419C251.107 137.226 246.482 138.514 237.853 140.175C236.813 140.377 236.037 140.516 235.712 140.609C216.374 145.514 196.042 151.163 178.877 161.391C177.931 161.949 176.968 162.555 175.991 163.175C171.723 165.876 167.299 168.67 162.473 168.67C162.007 168.67 161.526 168.639 161.045 168.592C159.943 168.468 157.289 165.41 156.001 163.951C155.458 163.315 154.976 162.787 154.651 162.462C152.307 160.118 149.979 157.619 147.527 154.795C143.492 150.123 139.55 144.986 135.111 138.623C128.748 129.435 122.524 120.014 116.611 110.64C114.873 107.878 113.088 105.162 111.288 102.43C107.392 96.5171 103.372 90.4022 100.036 84.0545C98.6233 81.1523 97.6145 78.5294 96.9627 76.0462L96.8075 75.4875C95.4107 70.4124 95.659 69.326 95.8297 69.1087C99.7408 64.4062 105.157 60.371 110.419 56.4599C114.516 53.418 118.753 50.2675 122.276 46.791C166.585 17.0857 222.333 0.665558 279.121 0.665558C340.906 0.665558 400.751 19.7086 447.653 54.2871C450.927 57.1428 454.124 59.5019 456.949 61.5971C462.955 66.0358 467.285 69.2484 467.813 73.7337C468.31 77.8465 465.625 83.1233 459.153 90.8678C459.122 90.9143 459.091 90.9609 459.06 91.023C456.375 96.3619 453.643 100.226 449.36 104.789C445.076 109.337 441.584 114.97 438.201 120.418C436.633 122.948 435.019 125.555 433.374 127.945C427.709 136.217 420.865 145.933 413.012 155.276C409.473 159.482 405.252 164.231 399.944 167.35C398.516 168.204 396.902 168.701 395.614 168.701C394.466 168.701 393.596 168.313 393.069 167.552C392.169 166.264 392.526 164.293 394.124 161.67C397.057 156.905 400.503 152.42 404.336 148.354C408.263 144.21 411.646 139.538 414.921 135.022L416.225 133.222C427.151 118.292 438.511 102.197 446.985 83.8838C447.901 81.8817 448.708 79.9262 448.398 77.8155C448.134 75.8755 446.923 74.2614 445.666 72.8025C436.152 61.6436 422.355 54.7527 410.187 48.6689C408.822 47.9705 407.347 47.3032 405.795 47.3032C405.547 47.3032 405.283 47.3187 405.019 47.3652C401.512 47.924 400.022 51.8505 399.199 54.7528L390.027 87.4844C389.406 89.7193 388.552 92.7767 389.716 95.4307C390.539 97.262 392.293 98.783 394.776 99.8228C396.297 100.444 397.725 100.754 399.06 100.754C399.867 100.754 400.627 100.63 401.341 100.413C403.436 99.7142 405.236 97.9759 406.726 95.2755C408.232 92.4819 409.132 89.4244 410.017 86.4601C410.467 84.9236 410.932 83.3251 411.491 81.8041C412.919 77.862 414.781 75.9375 417.327 75.7358C417.451 75.7358 417.575 75.7358 417.699 75.7358C418.956 75.7358 420.275 76.2324 421.284 77.1016C423.597 79.0726 424.481 82.5025 423.69 86.2428C423.084 89.0364 421.672 91.6904 420.431 94.0339C417.218 100.025 413.85 106 410.436 111.773C409.241 113.806 407.921 115.855 405.919 116.662C405.252 116.926 404.476 117.066 403.56 117.066C402.893 117.066 402.179 117.003 401.279 116.848C396.809 116.134 392.495 114.365 388.335 112.658L380.56 109.461C374.476 106.946 376.462 97.5724 377.766 91.38C377.89 90.7747 378.014 90.2159 378.123 89.6727C378.697 86.8791 379.38 84.039 380.063 81.2919C381.413 75.7979 382.795 70.1176 383.276 64.3441L383.602 62.7611C387.187 44.7579 389.158 34.8406 366.809 29.0516C341.341 20.5777 318.992 16.4494 298.521 16.4494C296.907 16.4494 295.277 16.4804 293.663 16.527C293.601 16.527 293.555 16.527 293.492 16.558C287.843 18.0169 287.641 24.5043 287.502 29.2534C287.502 29.719 287.471 30.1691 287.455 30.6036C287.471 44.5871 287.455 58.5396 287.44 72.4921C287.44 79.5848 287.424 86.6774 287.409 93.77C287.409 104.293 287.409 114.815 287.44 125.338C287.44 127.154 287.455 128.969 287.471 130.785C287.502 134.029 287.517 137.288 287.502 140.532C287.502 144.132 287.471 148.602 290.73 151.846C293.555 154.671 297.248 155.09 300.833 155.509C301.299 155.555 301.749 155.617 302.215 155.679C306.917 156.3 311.558 157.216 316.291 158.194C325.433 160.103 334.512 162.756 343.281 165.348L345.034 165.86C374.259 174.49 398.501 193.455 422.805 213.802C430.348 221.438 437.239 230.206 443.912 238.68C446.38 241.815 448.848 244.95 451.362 248.054C452.883 249.575 454.093 251.515 455.257 253.378C457.741 257.366 460.301 261.479 465.687 261.821C475.309 262.379 485.49 262.628 498.698 262.628C504.999 262.628 511.316 262.566 517.632 262.519C523.933 262.457 530.234 262.41 536.551 262.41C541.906 262.41 546.67 262.457 551.109 262.534C551.73 262.581 552.428 262.581 553.158 262.581H553.856C557.503 262.581 560.126 262.829 560.778 265.964C561.988 270.558 561.911 273.647 560.53 275.447C559.241 277.123 556.65 277.899 552.382 277.899C551.311 277.899 550.131 277.853 548.765 277.76C540.012 277.946 531.523 278.039 523.452 278.039C508.693 278.039 497.565 277.729 489.432 277.496C484.342 277.356 480.307 277.232 476.97 277.232C462.893 277.232 461.512 279.327 454.931 289.4C449.205 298.153 439.629 312.804 414.114 337.713C408.884 341.33 403.576 345.287 398.439 349.09C393.317 352.907 388.009 356.85 382.624 360.59C376.54 365.06 380.653 371.811 383.648 376.746C384.44 378.05 385.2 379.291 385.728 380.393C390.803 387.595 395.707 394.982 400.456 402.137C410.963 417.952 421.812 434.31 434.631 448.759L435.454 449.97C440.529 457.388 445.79 465.055 451.827 472.07C452.355 472.675 452.914 473.296 453.488 473.917C458.625 479.613 464.43 486.054 458.905 492.975C422.96 521.393 386.287 540.218 349.939 548.941C348.402 549.298 346.54 549.763 344.429 550.275C333.767 552.914 315.919 557.306 303.487 557.306H303.534ZM361.408 372.416C359.313 372.416 357.342 373.239 355.247 374.108C354.564 374.387 353.881 374.682 353.167 374.946C353.12 374.961 353.074 374.992 353.027 375.023C350.482 376.638 348.03 377.336 345.438 378.081C344.46 378.36 343.467 378.655 342.443 378.981C336.436 381.526 330.011 383.032 323.803 384.475C318.868 385.624 313.762 386.819 308.888 388.51C305.319 389.985 303.068 393.772 302.851 398.66C302.773 426.534 302.789 454.874 302.82 482.267C302.82 497.911 302.851 513.555 302.836 529.199C302.649 533.296 303.782 536.866 306.017 539.194C307.864 541.118 310.378 542.143 313.311 542.143C314.413 542.143 315.577 542.003 316.788 541.708C332.463 539.799 348.34 536.137 365.226 530.549C366.53 530.161 367.337 529.277 367.476 528.066C367.663 526.406 366.483 524.357 364.776 523.379C364.015 522.914 363.069 522.681 361.951 522.681C361.33 522.681 360.647 522.758 359.856 522.898C356.317 523.658 352.763 524.559 349.318 525.428L348.666 525.598C343.25 527.042 337.243 528.299 329.188 529.634H329.018C327.807 529.634 326.798 529.075 326.053 527.973C324.563 525.816 324.486 522.246 325.277 520.198C326.535 517.901 329.701 517.513 332.758 517.125C334.015 516.969 335.21 516.814 336.297 516.535C339.82 515.681 343.079 514.967 346.074 514.3C358.102 511.646 366.048 509.892 368.889 504.259C371.465 499.137 369.835 491.206 363.053 475.95C361.936 471.589 359.685 467.461 357.528 463.487C356.861 462.261 356.193 461.035 355.572 459.825C354.765 458.04 353.493 456.395 351.568 454.719C350.016 452.949 347.642 451.894 345.112 451.894C341.977 451.894 339.168 453.446 337.585 456.038C335.831 458.661 335.598 462.215 335.598 465.334C335.66 466.39 335.676 467.538 335.676 468.749C335.738 475.376 335.831 484.455 343.917 485.06C344.957 485.246 346.167 485.557 346.68 486.286C347.518 487.528 347.564 490.104 346.788 491.594C346.074 492.712 344.476 493.332 342.877 493.86C339.835 494.621 335.164 495.785 331.051 495.785C328.381 495.785 326.348 495.288 325.014 494.295C324.067 492.944 324.051 490.818 324.036 488.94C324.036 488.49 324.036 488.071 324.02 487.652C323.989 474.336 323.958 460.523 324.02 446.633C324.051 444.895 324.3 442.427 326.022 441.278C331.315 438.764 337.166 438.236 344.32 438.236C345.547 438.236 346.773 438.236 347.999 438.267C349.209 438.267 350.435 438.299 351.63 438.299H352.794C352.934 438.299 353.043 438.299 353.151 438.299C356.147 438.299 358.304 440.735 360.197 443.374C361.78 446.229 363.007 448.774 364.093 451.009C366.98 457 368.733 460.601 373.591 460.601C376.478 460.601 380.42 459.375 387.652 456.24C389.53 455.557 391.377 454.889 393.084 454.889C394.093 454.889 394.978 455.122 395.8 455.588C399.603 457.838 402.148 461.144 404.833 464.651C405.904 466.033 406.99 467.461 408.185 468.826C411.584 472.722 413.291 475.966 411.957 480.932C411.569 482.593 407.487 484.377 404.135 484.377C403.359 484.377 402.707 484.269 402.257 484.067C401.434 483.648 400.86 482.686 400.41 481.817L400.006 481.072C398.113 477.518 395.754 473.094 391.393 472.132C391.331 472.132 391.284 472.117 391.222 472.117C391.206 472.117 391.191 472.117 391.175 472.117C387.326 472.365 383.539 474.212 381.537 476.85C380.125 478.697 379.644 480.885 380.11 483.151C381.584 490.213 384.517 497.957 389.359 507.533C390.989 510.761 393.426 512.391 396.592 512.391C398.252 512.391 400.146 511.925 402.195 511.025C404.197 510.141 406.09 508.914 407.906 507.719C408.899 507.068 409.877 506.431 410.855 505.857C421.16 500.192 428.718 494.776 435.314 488.273C437.891 485.728 440.017 482.701 438.061 477.75C436.214 473.094 432.846 469.214 429.587 465.459C428.144 463.782 426.639 462.06 425.335 460.321C424.14 458.738 423.022 457 421.952 455.324C420.539 453.12 419.08 450.854 417.389 448.837C416.473 447.735 415.573 446.509 414.642 445.205C412.903 442.799 411.103 440.316 408.977 438.5C408.154 437.802 407.456 436.964 406.695 436.064C405.485 434.636 404.228 433.146 402.489 432.308C401.869 432.075 401.263 431.966 400.596 431.966C399.525 431.966 398.501 432.215 397.492 432.463L397.228 432.525C392.696 433.767 388.273 435.319 383.384 437.072C381.941 437.709 380.451 438.035 379.008 438.035C375.578 438.035 372.97 436.312 371.868 433.317C370.254 429.576 370.596 428.102 371.17 427.512C371.558 427.093 372.194 426.752 373.141 426.472C379.349 424.812 389.965 420.963 391.191 413.963C391.315 411.17 389.763 408.81 388.397 406.731L388.102 406.265C386.069 403.394 384.036 400.352 382.034 397.217C379.427 393.12 376.85 388.79 374.134 383.963C372.303 380.688 369.68 376.591 365.769 373.891C364.403 372.944 362.975 372.494 361.423 372.494L361.408 372.416ZM186.094 403.192C182.105 403.192 180.134 406.482 178.225 409.649C177.682 410.533 177.139 411.464 176.534 412.318C172.204 418.542 167.811 424.765 163.45 430.849C156.42 440.704 149.079 450.777 141.614 460.787C139.1 464.155 136.461 467.523 133.916 470.766L131.728 473.56C129.275 476.679 125.178 481.91 126.451 485.743C128.034 490.43 133.311 493.472 137.548 495.924C138.23 496.312 138.882 496.7 139.488 497.073L142.483 498.889C144.143 499.897 145.804 500.906 147.48 501.915C152.819 505.143 158.593 508.573 164.568 511.724C165.142 512.034 165.732 512.36 166.353 512.686C169.953 514.657 174.019 516.892 177.853 516.892C180.755 516.892 183.13 515.573 184.915 512.965C187.956 508.495 188.934 502.939 189.865 497.569C190.067 496.39 190.269 495.226 190.502 494.108C191.619 488.568 184.247 483.757 180.259 482.531C179.312 482.236 178.334 482.096 177.341 482.096C174.764 482.096 172.53 483.089 171.21 484.827C170.869 485.278 170.59 485.759 170.326 486.224C169.891 486.985 169.488 487.699 168.867 488.133C168.386 488.459 167.718 488.645 166.787 488.707C166.648 488.707 166.492 488.723 166.337 488.723C161.697 488.723 153.688 484.595 153.362 480.187C153.285 478.48 154.48 476.928 155.644 475.422L155.815 475.205C157.491 472.629 159.213 470.378 160.859 468.221L162.1 466.607C163.078 465.039 164.552 464.295 166.601 464.295C170.326 464.295 174.92 466.685 177.651 468.112L177.915 468.252C182.074 470.409 186.373 472.38 190.533 474.274L193.326 475.547C195.003 476.323 196.772 477.176 198.386 478.278C200.854 479.954 202.359 481.786 202.98 483.896C203.989 487.357 203.368 491.532 202.778 495.583C202.545 497.181 202.312 498.687 202.204 500.13C201.661 506.618 203.275 509.659 208.831 512.67C210.988 513.99 213.89 514.781 216.529 514.781C219.167 514.781 221.48 513.99 222.954 512.5C224.242 511.196 224.894 509.442 224.879 507.285C224.972 502.52 224.941 497.647 224.879 492.929C224.816 486.131 224.77 479.101 225.111 472.241C225.453 468.376 222.799 465.024 220.005 463.425C218.158 462.354 216.11 461.78 214.139 461.206L213.564 461.035C208.132 459.483 202.716 457.636 197.47 455.572L195.561 454.827C191.65 453.306 187.212 451.584 183.859 449.333C182.68 448.557 181.376 447.673 180.879 446.772C179.312 442.908 181.997 439.525 184.604 436.25L185.24 435.458C185.861 434.667 186.451 433.705 187.056 432.68C188.608 430.104 190.207 427.435 192.706 427.124C193.047 427.078 193.388 427.062 193.73 427.062C196.213 427.062 198.774 428.071 201.242 429.049C202.514 429.545 203.694 430.011 204.858 430.352C205.634 430.523 206.115 430.787 206.317 431.113C206.643 431.656 206.379 432.68 206.068 433.86C205.261 436.933 204.035 441.573 212.075 445.267C212.773 445.577 213.425 445.919 214.061 446.26C215.598 447.067 217.041 447.843 218.608 447.843C219.928 447.843 221.154 447.3 222.349 446.183C226.043 442.768 225.903 438.919 225.763 434.838C225.748 434.263 225.717 433.674 225.717 433.084C225.717 432.184 225.732 431.206 225.779 430.197C225.903 426.596 226.058 422.515 224.118 419.55C221.48 415.5 215.256 413.42 210.259 411.744C209.25 411.402 208.288 411.076 207.434 410.766C204.873 409.819 202.328 408.81 199.798 407.817C196.353 406.451 192.783 405.039 189.198 403.813C188.05 403.425 187.025 403.223 186.048 403.223L186.094 403.192ZM40.2526 316.482C36.4968 316.482 33.16 316.56 30.0715 316.699C27.8366 316.808 22.3581 317.46 19.5955 321.185C17.1123 324.521 17.8728 329.519 18.9437 333.942C22.4046 348.251 26.4398 363.523 32.5081 378.174C37.3659 389.892 43.2325 401.283 49.9371 412.008C57.2005 423.617 66.1865 435.039 75.9021 445.019C77.7489 446.912 79.5958 448.681 82.0169 449.582C83.0568 449.97 84.1897 450.171 85.2917 450.171C86.9213 450.171 88.4733 449.737 89.7614 448.914C91.4221 447.843 93.4241 445.686 94.852 443.389C96.7299 440.363 97.3197 437.647 96.4816 435.722C95.9694 434.558 95.0227 433.689 94.1846 432.929C83.7862 423.461 74.4897 412.69 66.5435 400.911C59.9475 391.149 54.3137 380.704 49.7664 369.886C47.4849 364.454 45.4673 358.883 43.7446 353.28C43.4653 352.38 43.1238 351.418 42.7513 350.393C41.2769 346.296 39.6008 341.64 41.4321 338.195C42.503 336.177 45.0328 335.898 47.6091 335.898C48.0437 335.898 48.4627 335.898 48.8662 335.898C49.2542 335.898 49.6267 335.898 49.9681 335.898L63.5481 335.867C65.3019 335.867 67.0867 335.789 68.887 335.727C70.7339 335.649 72.6429 335.587 74.5053 335.587C76.4918 335.587 78.199 335.68 79.7355 335.851C79.9838 335.882 80.2477 335.898 80.496 335.898C83.0102 335.898 85.6331 334.47 87.2937 332.142C88.8147 330.031 89.2803 327.594 88.5819 325.437C86.1608 320.548 83.2896 317.305 77.035 317.01C73.3257 316.839 69.6009 316.823 66.0158 316.823C61.872 316.823 57.6195 316.715 53.5222 316.622C49.1611 316.529 44.6448 316.42 40.2061 316.42L40.2526 316.482ZM185.303 31.8918C182.493 31.8918 179.731 33.1489 177.046 34.3595C175.339 35.1355 173.725 35.8649 172.157 36.2684C169.969 36.7495 168.075 37.9291 166.244 39.062C164.878 39.9156 163.59 40.7072 162.209 41.2193C159.943 42.0574 157.925 43.2524 155.97 44.4164C154.93 45.0372 153.906 45.658 152.819 46.2168C149.234 48.1257 145.789 50.3606 142.452 52.5179C142.452 52.5179 139.674 54.3337 139.193 54.6441C137.936 55.4667 136.663 56.2737 135.375 57.0963C129.26 60.9763 122.928 64.9959 117.961 70.5676C113.228 75.891 117.434 83.4958 120.491 89.0519C121.05 90.0763 121.577 91.023 122.012 91.8921C122.571 92.932 123.052 94.0184 123.517 95.0737C124.076 96.3464 124.666 97.6656 125.38 98.9227C125.721 99.4969 126.063 100.071 126.404 100.645C127.491 102.461 128.624 104.339 129.446 106.295C133.621 115.902 137.811 124.034 142.266 131.127C144.888 135.302 147.667 139.244 150.538 142.844C151.159 143.62 151.764 144.427 152.369 145.219C154.169 147.578 156.016 150.014 158.298 152.001C160.672 154.065 163.093 155.105 165.499 155.105C165.872 155.105 166.244 155.074 166.632 155.027C166.694 155.027 166.756 154.996 166.818 154.981C172.436 152.684 178.148 150.247 183.657 147.904C191.712 144.458 200.047 140.904 208.334 137.707C212.711 136.341 215.427 132.57 215.194 128.1C215.008 124.344 212.463 120.092 207.232 119.021C206.891 118.959 206.58 118.943 206.255 118.943C205.075 118.943 203.911 119.285 202.825 119.642C199.736 120.915 196.663 122.125 193.59 123.32C190.021 124.717 186.342 126.176 182.726 127.681C178.629 129.637 174.283 131.53 169.798 131.53C169.239 131.53 168.665 131.499 168.106 131.437C166.399 130.987 164.723 129.994 163.124 128.442C162.007 127.34 160.936 125.99 159.881 124.282C155.613 117.438 151.221 110.376 147.946 102.911C144.842 95.8187 141.303 87.7793 140 79.6313C139.72 77.8465 139.938 75.4875 142.576 74.4011C143.864 73.8734 145.09 73.1284 146.254 72.4145C147.185 71.8403 148.148 71.2505 149.125 70.7849C151.748 69.5588 154.387 68.2396 156.994 66.8739C158.267 66.2065 159.524 65.5391 160.796 64.8563C162.768 63.8009 164.723 62.7611 166.71 61.7678C168.246 60.9918 170.512 60.0761 172.607 60.0761C174.997 60.0761 176.441 61.3022 176.999 63.8009L177.217 64.9183C178.908 73.5319 180.678 82.4404 181.004 91.3334V91.6283C181.066 93.2113 181.035 94.4374 180.072 94.7012C179.048 94.8564 177.76 95.0272 176.472 95.0272C174.609 95.0272 173.244 94.6547 172.297 93.8787C170.729 92.4353 170.031 90.1073 169.301 87.6396C168.851 86.1497 168.401 84.5977 167.718 83.2475C166.663 79.5692 164.18 77.3809 161.06 77.3809C158.934 77.3809 156.746 78.4363 154.93 80.3297C152.478 82.5335 151.919 85.9324 153.378 89.859C154.588 93.739 156.125 97.5569 157.615 101.251L158.313 102.989C159.167 105.363 160.703 107.366 162.193 109.306C162.488 109.694 162.783 110.082 163.078 110.47C163.419 110.982 163.714 111.54 164.009 112.084C164.537 113.061 165.064 114.07 165.918 114.924C167.408 116.491 169.503 117.329 171.971 117.329C173.414 117.329 174.951 117.035 176.379 116.476C183.487 114.194 190.486 111.556 197.113 108.623C200.683 107.195 202.452 103.951 201.583 100.382C201.319 98.4726 200.652 96.6102 200 94.8099C199.302 92.8854 198.65 91.0695 198.432 89.114C197.331 83.6975 196.353 78.2345 195.406 72.9577C194.801 69.6054 194.195 66.2375 193.575 62.9008C193.233 59.5795 193.016 56.103 192.783 52.7351C192.473 47.9705 192.147 43.0352 191.48 38.224C191.231 36.3771 190.672 33.7852 188.779 32.6833C187.631 32.1712 186.482 31.9228 185.256 31.9228L185.303 31.8918ZM237.419 100.397C234.579 100.397 231.614 101.297 228.991 102.104L227.843 102.446C227.843 102.446 227.734 102.477 227.688 102.508L227.486 102.616C227.486 102.616 227.393 102.679 227.346 102.71L226.989 103.004C225.406 104.339 223.42 106.015 223.761 108.84C224.009 111.137 224.351 113.449 224.677 115.7C224.848 116.817 225.003 117.95 225.158 119.068C225.453 121.442 225.887 123.863 227.144 125.508C228.867 127.495 231.397 128.721 233.803 128.721C234.873 128.721 235.882 128.488 236.813 128.038C237.186 127.93 237.698 127.79 238.226 127.65C240.523 127.045 243.13 126.346 244.48 124.158C245.458 122.746 245.815 120.744 245.474 118.4L245.38 117.826C244.853 114.489 244.341 111.323 244.341 108.033C244.341 106.791 244.232 105.348 243.378 104.137C243.223 103.92 243.083 103.718 242.928 103.501C242.028 102.197 241.019 100.707 238.878 100.475C238.396 100.413 237.915 100.382 237.403 100.382L237.419 100.397Z" fill="#F7F7FB"/>
<path d="M479.207 469.136C475.125 469.136 471.68 465.008 467.334 459.793C465.937 458.117 464.478 456.379 462.849 454.578C456.144 448.184 451.162 441.045 445.87 433.487C444.954 432.168 444.023 430.848 443.092 429.514C439.646 425.432 436.48 421.257 432.429 415.484C431.778 414.521 431.002 413.512 430.226 412.488C427.091 408.36 423.847 404.076 425.026 399.576C425.632 397.418 427.603 396.285 430.117 394.873C430.986 394.392 431.886 393.864 432.817 393.274C438.156 389.736 447.049 383.838 444.783 376.218C443.557 372.493 439.398 368.334 434.804 368.039C430.086 368.054 426.268 370.91 422.559 373.673C420.991 374.837 419.517 375.939 418.011 376.823C415.482 378.701 413.247 379.632 411.26 379.632C410.127 379.632 409.056 379.306 408.094 378.686C405.176 376.854 403.314 372.183 405.269 368.892C407.147 366.27 409.817 364.469 412.641 362.576C414.783 361.132 417.003 359.643 418.927 357.703C421.193 355.809 423.599 353.559 425.849 351.262C427.385 349.679 429.093 348.22 431.11 348.22C435.239 348.499 438.824 352.131 442.005 355.328C443.123 356.461 444.178 357.516 445.218 358.401C446.708 359.906 448.213 361.381 449.688 362.84C453.366 366.471 456.842 369.917 460.474 373.843C465.13 378.748 470.655 383.217 475.994 387.532C478.353 389.441 480.79 391.396 483.102 393.368C483.956 394.035 484.934 394.64 485.88 395.214C488.069 396.549 490.335 397.946 490.986 400.088C492.29 406.606 486.765 412.768 482.73 417.284C481.286 418.82 479.222 419.752 477.22 419.752C474.69 419.752 472.844 418.277 472.161 415.716C471.881 414.288 471.664 412.923 471.462 411.635C470.624 406.265 469.941 402.012 464.447 397.698C462.274 395.168 460.055 393.942 457.634 393.942C454.064 393.942 450.774 396.642 447.453 399.653C443.48 402.85 443.666 407.972 447.965 413.342C453.459 420.993 458.457 427.17 463.237 432.183C464.121 433.037 465.037 434.03 466.015 435.07C469.91 439.245 474.752 444.444 480.122 444.444C480.883 444.444 481.643 444.335 482.373 444.133C487.913 441.836 491.762 436.575 495.487 431.5C496.62 429.948 497.691 428.489 498.808 427.124C505.513 418.417 510.433 409.586 514.359 402.09C526.838 380.331 535.901 357.951 541.287 335.633C541.52 333.879 542.078 331.784 542.652 329.549C544.67 321.851 547.417 311.313 538.462 308.721C536.041 308.039 533.278 307.93 530.888 307.899C525.379 307.899 519.885 307.899 514.375 307.899H492.088C488.674 307.945 484.437 308.008 480.929 309.808C477.593 311.468 475.28 314.51 473.371 317.226L472.766 318.127C469.507 323.031 465.44 329.115 469.46 334.935C472.393 339.265 476.367 343.424 481.985 348.065C485.042 351.293 488.736 354.831 492.476 356.197L492.678 356.275C493.532 356.616 494.416 356.787 495.27 356.787C497.07 356.787 498.762 356.026 500.143 354.583C502.006 352.628 503.092 349.586 502.952 346.652C502.813 341.67 498.902 338.753 495.456 336.192C494.106 335.183 492.818 334.221 491.762 333.181C490.567 331.893 489.962 330.418 490.164 329.348C490.304 328.634 490.831 328.059 491.716 327.656C492.864 327.144 494.525 327.082 495.673 327.082C496.077 327.082 496.465 327.082 496.853 327.097C498.312 327.144 499.786 327.159 501.292 327.159C502.378 327.159 506.724 327.128 507.81 327.128C508.617 327.128 509.424 327.128 510.231 327.128H510.542C514.251 327.159 518.084 327.19 519.9 328.882C523.408 332.436 521.25 338.396 519.341 343.672C518.798 345.193 518.271 346.621 517.929 347.925C515.601 355.84 512.854 363.103 509.766 369.529C508.12 373.223 504.597 376.947 500.407 376.947C499.243 376.947 498.079 376.652 496.946 376.094C489.481 372.416 482.156 366.999 474.535 359.534C465.208 352.612 457.975 343.098 451.519 333.848C447.965 327.873 452.062 322.084 456.035 316.497C457.091 315.007 458.1 313.595 458.922 312.198C459.683 311.034 460.459 309.761 461.235 308.489C463.438 304.872 465.735 301.117 468.7 298.09C471.819 294.847 476.429 294.583 481.286 294.583H482.047C485.725 294.614 489.388 294.629 493.066 294.629C498.653 294.629 504.24 294.598 509.812 294.583C515.384 294.567 520.987 294.536 526.574 294.536C536.677 294.536 544.903 294.629 552.43 294.816C554.836 294.94 556.683 295.747 557.94 297.206C559.756 299.332 560.392 302.855 559.88 307.682C558.669 322.038 555.969 336.192 551.84 349.787C545.834 372.198 538.245 391.381 528.622 408.468C516.796 428.148 504.287 445.732 491.483 460.709C486.455 466.467 482.559 469.136 479.238 469.136H479.207Z" fill="#F7F7FB"/>
<path d="M491.388 248.349C491.062 248.349 490.736 248.333 490.41 248.302C488.657 248.085 486.903 248.054 485.568 248.054C484.823 248.054 484.063 248.054 483.318 248.069C482.573 248.069 481.828 248.085 481.098 248.085C478.398 248.085 475.542 247.961 472.826 247.045C471.398 246.44 469.955 245.167 468.434 243.165L468.325 243.025C459.758 231.742 450.896 220.071 440.824 209.735C438.76 207.609 436.478 205.576 434.29 203.62C430.798 200.485 427.182 197.257 424.311 193.594C423.907 193.082 423.457 192.554 422.991 192.011C420.896 189.543 418.739 186.998 419.174 184.018C419.391 182.544 420.058 181.023 421.284 179.223C422.743 177.065 424.574 175.11 426.328 173.216C427.663 171.788 429.029 170.314 430.27 168.747C431.357 167.365 432.334 165.906 433.297 164.494C434.631 162.508 436.028 160.443 437.658 158.674C439.086 157.122 440.343 156.315 441.615 156.113C441.817 156.082 442.019 156.067 442.221 156.067C444.099 156.067 445.914 157.293 447.622 158.565C456.872 165.394 464.989 171.757 470.607 180.387C472.795 183.739 473.4 186.486 472.407 188.55C471.414 190.614 469.039 191.359 467.146 191.359C466.23 191.359 465.314 191.204 464.492 190.894C461.481 189.776 459.169 187.231 456.918 184.779C454.419 182.032 451.905 179.486 448.584 178.431C447.668 178.136 446.784 177.996 445.914 177.996C445.263 177.996 444.642 178.09 444.068 178.245C442.873 178.586 441.724 179.316 440.56 180.449C438.589 182.373 437.549 184.624 437.642 186.765C437.751 189.605 439.691 191.84 441.678 193.889C442.454 194.696 443.245 195.503 444.021 196.295C447.761 200.112 451.626 204.07 454.901 208.369L466.929 224.308C469.039 227.086 472.702 230.345 476.116 230.345C477.762 230.345 479.143 229.569 480.152 228.126C482.48 224.774 482.588 219.994 482.666 215.788C482.681 214.981 482.697 214.205 482.728 213.444C482.666 209.036 483.442 206.181 485.165 204.427C487.617 201.928 492.071 201.696 497.658 201.664H502.345C505.899 201.696 509.453 201.696 513.007 201.696C517.167 201.696 521.326 201.696 525.454 201.633C527.208 201.54 532.454 201.261 533.773 197.443C534.596 195.177 533.789 191.856 532.889 188.643C532.004 184.453 530.126 180.588 528.31 176.864C527.86 175.932 527.41 175.017 526.975 174.101C524.089 167.164 520.597 159.186 515.832 152.637C514.746 151.007 513.768 149.191 512.821 147.438C511.533 145.016 510.183 142.518 508.429 140.252C507.777 139.336 506.97 138.064 506.023 136.589C501.662 129.76 495.097 119.44 488.206 119.44C485.956 119.44 483.861 120.541 481.967 122.73L481.828 122.885C475.728 129.465 475.79 133.532 482.138 140.252C486.53 146.134 492.273 153.087 497.441 158.783C502.578 163.951 505.977 170.826 507.327 178.679C507.389 179.58 507.203 180.293 506.753 180.775C505.915 181.675 504.052 181.799 502.547 181.799C501.818 181.799 501.042 181.768 500.281 181.737H499.831C498.31 181.628 497.115 181.395 496.091 181.007C492.862 179.642 490.721 176.662 488.657 173.76C487.353 171.928 485.987 170.035 484.358 168.56C483.923 168.033 483.411 167.381 482.868 166.682C480.974 164.292 478.832 161.576 476.334 159.792C473.788 156.579 470.638 153.723 467.596 150.961C466.432 149.89 465.268 148.834 464.15 147.779C452.666 136.822 454.419 134.447 459.634 127.37C461.372 125.011 463.53 122.078 465.609 118.213C469.52 110.671 472.516 105.223 478.165 98.3479C478.693 97.6339 479.127 96.92 479.546 96.2061C480.4 94.7782 481.207 93.428 482.557 92.621C483.566 91.9536 484.73 91.6122 486.003 91.6122C488.253 91.6122 490.441 92.683 491.714 94.4058C494.477 97.6494 497.162 101.064 499.753 104.37C502.206 107.489 504.751 110.733 507.327 113.775C510.99 117.546 514.032 121.442 515.925 124.809C522.149 134.696 528.652 145.218 534.099 155.415C535.294 158.115 536.551 160.831 537.824 163.547C541.425 171.323 545.149 179.378 547.834 187.65C548.362 189.45 548.89 191.266 549.433 193.082C553.872 208.105 558.45 223.625 559.769 239.471C560.219 242.715 559.893 244.903 558.76 246.207C557.721 247.402 555.874 247.992 553.111 247.992C552.785 247.992 552.444 247.992 552.087 247.961C551.978 247.961 546.081 247.961 543.256 247.961C540.276 247.961 537.312 247.961 534.332 247.961C530.452 247.961 526.556 247.961 522.661 247.899H522.382C520.178 247.899 518.439 247.262 517.369 246.067C516.282 244.857 515.863 243.025 516.111 240.79C516.111 234.443 519.51 233.217 525.346 233.217C526.293 233.217 527.286 233.248 528.264 233.279C529.257 233.31 530.266 233.341 531.243 233.341C532.33 233.341 533.261 233.294 534.084 233.217C537.482 232.999 541.626 232.27 543.225 228.561C544.203 226.217 543.97 223.486 542.604 221.049C541.083 218.348 538.491 216.471 535.651 216.02C532.283 215.617 528.714 215.446 524.073 215.446C521.885 215.446 519.697 215.477 517.524 215.524C515.351 215.555 513.178 215.601 511.005 215.601C510.012 215.601 509.034 215.601 508.057 215.57H507.529C503.835 215.57 500.995 216.641 499.117 218.752C497.053 221.08 496.23 224.65 496.742 229.104C497.208 234.101 497.286 238.881 496.975 243.305C496.898 247.666 493.421 248.302 491.357 248.302L491.388 248.349Z" fill="#F7F7FB"/>
<path d="M68.9634 248.351C66.8992 248.351 63.4227 247.699 63.3451 243.384C63.0347 238.93 63.1123 234.15 63.5779 229.121C64.0901 224.698 63.2675 221.129 61.2034 218.801C59.3255 216.69 56.4853 215.619 52.7915 215.619H52.2483C51.2706 215.65 50.2928 215.65 49.2995 215.65C47.1423 215.65 44.9695 215.619 42.7811 215.572C40.5928 215.541 38.4045 215.495 36.2317 215.495C31.5912 215.495 28.0216 215.665 24.6848 216.069C21.8291 216.519 19.2218 218.397 17.7008 221.097C16.3351 223.534 16.1023 226.266 17.0645 228.609C18.6786 232.318 22.8069 233.048 26.2368 233.281C27.0283 233.358 27.9595 233.405 29.0459 233.405C30.0237 233.405 31.0325 233.374 32.0258 233.343C33.0035 233.312 33.9813 233.281 34.9435 233.281C40.7791 233.281 44.1624 234.507 44.1779 240.761C44.4418 243.089 44.0072 244.921 42.9363 246.131C41.8655 247.326 40.1427 247.963 37.9234 247.963H37.6751C33.764 248.009 29.8685 248.009 25.9885 248.009C23.0087 248.009 20.0443 248.009 17.0645 248.009C14.1312 248.009 11.1979 248.009 8.26465 248.009C7.87665 248.025 7.53521 248.04 7.20929 248.04C4.44673 248.04 2.59985 247.45 1.56001 246.255C0.427051 244.952 0.0856171 242.763 0.535697 239.566C1.87042 223.674 6.44881 208.154 10.8875 193.13C11.4307 191.315 11.9584 189.483 12.4861 187.667C15.1555 179.411 18.8803 171.371 22.481 163.58C23.7381 160.864 24.9952 158.133 26.2213 155.386C31.6378 145.251 38.1407 134.729 44.3487 124.873C46.2731 121.475 49.3151 117.564 52.9312 113.854C55.5386 110.766 58.0839 107.522 60.5515 104.403C63.1589 101.097 65.8439 97.6824 68.5599 94.4853C69.8635 92.716 72.0519 91.6606 74.3023 91.6606C75.5594 91.6606 76.7389 92.0021 77.7011 92.6384C79.0979 93.461 79.905 94.8112 80.7586 96.2391C81.1776 96.9375 81.6122 97.6669 82.1243 98.3498C87.8047 105.256 90.7845 110.704 94.7111 118.231C96.7907 122.111 98.948 125.029 100.686 127.388C105.901 134.465 107.655 136.839 96.1855 147.797C95.0835 148.852 93.9195 149.907 92.7555 150.978C89.7136 153.741 86.5631 156.596 84.0178 159.825C81.5191 161.609 79.3773 164.31 77.4839 166.715C76.9407 167.398 76.413 168.066 75.9163 168.671C74.3643 170.083 72.9986 171.977 71.6949 173.793C69.6307 176.679 67.489 179.675 64.2298 181.04C63.2365 181.428 62.0415 181.646 60.4895 181.754H60.0704C59.2944 181.801 58.5339 181.832 57.8045 181.832C56.2835 181.832 54.4367 181.723 53.5986 180.808C53.1485 180.326 52.9623 179.613 53.0399 178.635C54.3746 170.859 57.7735 163.984 62.8951 158.847C68.0787 153.135 73.8211 146.182 78.2754 140.223C84.561 133.565 84.6386 129.514 78.5237 122.918L78.3685 122.747C76.4906 120.574 74.3954 119.473 72.145 119.473C65.2541 119.473 58.6891 129.793 54.328 136.622C53.3813 138.096 52.5743 139.369 51.9069 140.316C50.1687 142.551 48.8184 145.049 47.5303 147.471C46.5835 149.224 45.6213 151.04 44.5039 152.701C39.7547 159.219 36.2627 167.196 33.3605 174.165C32.9415 175.05 32.4914 175.981 32.0413 176.897C30.2254 180.621 28.3475 184.47 27.4474 188.723C26.5627 191.889 25.7557 195.21 26.5783 197.492C27.8975 201.294 33.1432 201.573 34.8659 201.666C39.0253 201.713 43.1847 201.729 47.344 201.729C50.8981 201.729 54.4522 201.728 58.0063 201.713H62.7088C68.296 201.744 72.7503 201.961 75.2024 204.46C76.9251 206.229 77.7011 209.069 77.6391 213.431C77.6701 214.238 77.6856 215.014 77.7011 215.821C77.7943 220.027 77.9029 224.791 80.2309 228.159C81.2242 229.618 82.621 230.378 84.2661 230.378C87.665 230.378 91.3432 227.119 93.4539 224.341L105.482 208.402C108.757 204.103 112.621 200.145 116.361 196.328C117.153 195.52 117.929 194.729 118.705 193.922C120.676 191.873 122.616 189.654 122.74 186.798C122.818 184.656 121.793 182.422 119.822 180.482C118.658 179.349 117.51 178.619 116.315 178.278C115.741 178.107 115.104 178.029 114.468 178.029C113.614 178.029 112.714 178.185 111.799 178.464C108.477 179.519 105.963 182.08 103.464 184.812C101.229 187.264 98.9015 189.809 95.8906 190.927C95.068 191.221 94.1523 191.392 93.2367 191.392C91.3432 191.392 88.9531 190.663 87.9754 188.583C86.9821 186.519 87.5874 183.772 89.7757 180.42C95.3939 171.806 103.511 165.443 112.761 158.598C114.468 157.341 116.299 156.1 118.162 156.1C118.364 156.1 118.565 156.1 118.767 156.146C120.04 156.332 121.297 157.14 122.725 158.707C124.354 160.476 125.736 162.541 127.086 164.527C128.048 165.939 129.026 167.414 130.112 168.78C131.338 170.347 132.72 171.821 134.054 173.249C135.824 175.143 137.639 177.098 139.098 179.256C140.309 181.04 140.976 182.561 141.209 184.051C141.659 187.016 139.486 189.576 137.391 192.044C136.925 192.587 136.491 193.115 136.072 193.627C133.201 197.29 129.585 200.518 126.093 203.653C123.904 205.624 121.623 207.657 119.559 209.768C109.486 220.104 100.624 231.775 92.0571 243.058L91.9485 243.198C90.4275 245.2 88.9842 246.473 87.4943 247.109C84.8403 248.009 81.9691 248.133 79.2687 248.133C78.5237 248.133 77.7787 248.133 77.0493 248.118C76.3043 248.118 75.5439 248.102 74.7989 248.102C73.4642 248.102 71.7104 248.133 69.9411 248.351C69.6307 248.382 69.3048 248.397 68.9789 248.397L68.9634 248.351Z" fill="#F7F7FB"/>
<path d="M374.973 156.596C372.909 156.596 370.907 155.898 369.65 154.734C367.756 152.809 368.346 150.372 369.013 147.532C369.665 144.832 370.395 141.759 368.377 139.214C366.67 137.056 364.28 136.218 361.967 135.396C361.098 135.085 360.276 134.806 359.484 134.449C357.637 133.456 355.775 132.912 354.13 132.912C351.895 132.912 350.048 133.89 348.791 135.753L348.232 136.435C346.742 138.313 345.19 140.253 343.017 141.2C342.055 141.712 340.969 141.945 339.65 141.945C337.601 141.945 335.304 141.371 333.069 140.812C332.371 140.641 331.672 140.455 330.989 140.3C328.149 139.602 324.766 138.795 321.305 138.112C320.25 137.848 319.055 137.677 317.922 137.491C315.113 137.072 312.21 136.622 310.286 134.852C308.858 133.269 308.144 129.824 308.47 125.928C308.78 122.173 310.006 118.929 311.574 117.687C312.459 117.004 313.747 116.663 315.501 116.663C316.028 116.663 316.587 116.694 317.146 116.741C317.984 116.818 318.837 116.927 319.722 117.02C322.236 117.299 324.828 117.594 327.404 117.594C331.486 117.594 334.637 116.849 337.322 115.251C343.343 110.859 345.237 103.626 347.068 96.6267C347.472 95.0902 347.86 93.5848 348.294 92.1414C348.698 89.8755 349.163 87.6561 349.613 85.4988C350.684 80.4393 351.786 75.2091 351.817 69.9633V69.6529C351.926 59.6736 342.785 57.1593 335.428 55.1417L334.357 54.8468L333.659 54.6451C331.284 53.9467 328.832 53.2172 326.535 53.2172C325.263 53.2172 324.176 53.45 323.229 53.9001C320.995 55.002 319.287 57.5008 318.573 60.76C317.782 64.3451 318.372 67.9147 320.11 70.0564C321.352 71.5929 323.152 72.3689 324.875 73.1139C326.333 73.7502 327.715 74.34 328.739 75.3488C331.905 78.4838 331.036 84.7073 330.4 89.2392L330.26 90.279C329.546 95.5403 326.923 98.0855 322.252 98.0855C321.646 98.0855 321.01 98.039 320.343 97.9614C319.489 97.8838 318.62 97.8528 317.72 97.8217C314.725 97.7131 311.621 97.6044 309.913 96.1455C307.492 93.7089 307.803 89.8444 308.082 86.1196C308.206 84.49 308.346 82.7984 308.237 81.2619C308.315 75.2867 308.299 69.1252 308.284 63.1811C308.284 57.1593 308.268 50.9203 308.346 44.8054C308.439 42.4464 308.687 40.0563 309.975 38.644C311.108 37.5265 312.707 36.9678 314.818 36.9678C316.773 36.9678 318.837 37.4179 320.855 37.868C321.6 38.0387 322.329 38.1939 323.012 38.318L325.961 38.9388C331.859 40.1649 337.958 41.422 343.778 43.2379C344.911 43.5172 346.013 43.7656 347.099 44.0294C350.576 44.8364 354.161 45.69 357.544 46.8385C357.963 46.9782 358.382 47.1024 358.817 47.2265C360.648 47.7697 362.526 48.3284 363.566 49.57C364.264 50.3926 364.528 51.898 364.389 54.0553C364.032 59.1769 363.612 64.9969 362.666 70.5686C361.952 73.983 361.362 77.4284 360.788 80.7497C359.593 87.7337 358.475 94.3452 356.178 101.081C355.79 102.897 355.123 104.604 354.409 106.435C353.214 109.508 351.972 112.674 352.329 115.934C352.764 117.843 354.176 119.332 356.691 120.59C360.089 122.281 363.892 123.445 367.182 124.407C370.084 125.215 372.754 126.316 375.578 127.465C376.944 128.024 378.31 128.582 379.738 129.126C383.804 130.522 388.476 132.587 388.724 136.342C388.957 140.191 386.613 143.559 384.332 146.803C383.432 148.091 382.5 149.426 381.755 150.76C381.476 151.226 381.197 151.723 380.933 152.204C379.862 154.144 378.931 155.82 376.836 156.363C376.261 156.487 375.641 156.565 374.989 156.565L374.973 156.596Z" fill="#F7F7FB"/>
<path d="M371.139 214.469L371.324 214.484L371.247 214.314L371.139 214.469Z" fill="#F7F7FB"/>
<path d="M327.574 419.319C326.1 419.319 324.952 418.667 324.16 417.394C322.453 414.647 322.732 409.727 324.067 407.011C324.626 406.22 325.883 405.894 327.031 405.661C334.248 404.218 341.31 401.672 348.138 399.236C350.296 398.46 352.437 397.699 354.595 396.954C355.976 396.489 357.125 396.256 358.133 396.256C359.67 396.256 360.818 396.799 361.641 397.932C363.224 400.027 364.838 402.448 364.776 404.668C364.652 409.929 358.304 412.071 353.679 413.623L352.375 414.073C345.872 416.339 339.416 417.425 332.572 418.558C331.284 418.775 329.996 418.993 328.707 419.21L328.459 419.241C328.149 419.288 327.854 419.303 327.59 419.303L327.574 419.319Z" fill="#F7F7FB"/>
<path d="M281.246 327.052C263.243 327.052 247.428 319.54 237.867 306.426C229.285 294.631 225.87 283.27 226.46 268.48C226.46 268.371 226.46 268.262 226.46 268.154C226.414 261.651 228.136 254.636 231.287 248.428C231.349 248.304 231.411 248.195 231.458 248.071C234.174 241.863 238.349 235.919 242.632 232.147C242.694 232.101 243.067 231.744 243.098 231.713C253.574 221.299 267.511 215.556 282.332 215.556C295.012 215.556 307.319 219.623 317.935 227.321C331.344 237.812 339.197 255.381 338.452 273.244C337.211 287.305 332.648 299.271 325.245 307.885C325.167 307.978 325.074 308.087 324.997 308.195C320.806 313.658 314.428 317.554 308.747 320.627C305.085 322.675 301.065 323.948 296.16 325.236C291.349 326.447 286.305 327.068 281.23 327.068L281.246 327.052ZM236.797 293.7C244.774 310.927 263.072 322.489 282.363 322.489C283.046 322.489 283.745 322.489 284.427 322.443C296.611 321.915 308.483 317.616 316.15 310.958C329.482 299.38 336.264 280.446 333.036 263.824C330.863 252.634 326.068 242.592 319.518 235.531C316.523 232.303 312.674 229.835 309.29 227.662C308.577 227.212 307.878 226.762 307.273 226.358C306.978 226.157 306.652 225.97 306.326 225.831C298.814 222.323 290.729 220.461 282.953 220.461C280.33 220.461 277.707 220.678 275.146 221.097C267.029 221.889 259.844 224.605 253.186 229.431L252.984 229.571C249.011 232.458 245.891 235.22 243.47 238.014C243.284 238.231 243.098 238.464 242.942 238.712C239.031 244.563 236.176 249.545 234.22 253.922C234.096 254.217 233.987 254.512 233.894 254.807C230.138 267.642 231.24 282.525 236.797 293.7Z" fill="#F7F7FB"/>
<path d="M280.579 355.935C272.384 355.935 264.127 355.298 256.041 354.041C240.304 351.31 223.418 346.172 207.231 339.173C197.547 334.424 189.647 329.597 182.384 324.01C180.211 322.396 178.084 320.859 175.989 319.354C169.75 314.884 163.868 310.663 158.622 305.122C148.488 295.05 141.55 286.591 137.407 279.266C133.79 272.716 138.477 267.129 143.009 261.713C144.111 260.393 145.244 259.043 146.237 257.708C159.507 240.916 177.945 225.815 202.591 211.552C226.367 197.413 256.104 189.312 284.164 189.312C287.966 189.312 291.753 189.467 295.416 189.762C327.03 192.804 356.689 204.196 381.164 222.711C381.288 222.804 381.428 222.851 381.567 222.866C381.614 222.99 381.707 223.099 381.816 223.192C396.001 233.404 407.393 244.377 415.68 255.815C416.736 257.414 418.101 259.043 419.421 260.611C422.944 264.786 426.575 269.116 425.582 274.439C424.899 277.481 422.835 280.29 420.414 283.379C417.931 286.421 415.851 289.09 413.895 291.573C410.947 295.329 408.417 298.557 405.328 302.142C400.998 306.922 395.504 311.113 390.196 315.164C386.409 318.05 382.498 321.03 379.053 324.196L378.898 324.32C364.837 334.858 347.594 343.193 329.032 348.392C313.388 353.405 297.092 355.935 280.563 355.935H280.579ZM282.317 203.295C263.817 203.295 246.435 210.466 233.351 223.471L233.181 223.627C227.547 228.577 222.301 235.996 218.809 243.989C214.774 251.951 212.57 260.983 212.617 269.426C211.887 287.476 216.248 301.956 226.74 316.374C238.814 332.934 258.618 342.417 281.091 342.417C287.345 342.417 293.584 341.656 299.622 340.135C305.643 338.552 310.61 336.969 315.297 334.346C322.312 330.544 330.258 325.686 335.783 318.469C345.064 307.667 350.776 292.799 352.281 275.525C353.259 253.13 343.357 231.076 326.456 217.915C313.326 208.355 298.07 203.311 282.317 203.311V203.295ZM209.776 221.857C205.555 221.857 197.36 228.221 189.135 235.096C188.079 235.965 187.272 236.648 186.791 237.02C183.905 239.441 181.251 242.22 178.69 244.904C177.96 245.665 177.246 246.425 176.533 247.155L176.362 247.326C174.701 249.033 173.04 250.693 171.38 252.354C167.174 256.56 162.828 260.906 158.762 265.919C152.771 272.142 152.771 278.692 158.824 284.806C168.353 294.786 176.47 302.577 185.146 310.057C187.04 311.47 188.933 312.665 190.764 313.829C193.325 315.443 195.731 316.964 198.012 318.95C199.704 320.471 206.874 325.872 210.444 325.872C211.561 325.872 212.12 325.36 212.415 324.941C213.113 323.886 212.896 322.116 211.732 319.4C203.429 303.368 195.001 278.924 201.83 253.146C204.096 244.672 206.377 237.688 210.102 231.231C211.251 229.214 213.082 225.52 212.337 223.394C211.98 222.649 211.282 221.842 209.761 221.842L209.776 221.857ZM353.166 220.352C352.591 220.352 352.126 220.492 351.8 220.771C351.738 220.817 351.614 220.942 351.567 221.004C350.093 223.347 351.955 226.917 353.6 230.083C354.035 230.921 354.454 231.697 354.733 232.38C358.101 238.464 360.77 245.246 363.176 253.797C367.801 273.291 365.132 295.003 355.851 313.332C354.33 316.033 352.716 319.695 353.817 321.604C354.097 322.101 354.702 322.675 355.897 322.675C357.278 322.675 359.187 321.884 361.717 320.27C365.457 317.662 368.22 315.179 370.889 312.773C373.512 310.414 375.98 308.195 379.131 306.069C381.986 303.539 384.314 301.18 386.549 298.914C389.141 296.276 391.841 293.56 395.302 290.58C409.146 276.922 410.931 271.102 397.165 256.048C392.229 250.212 386.611 244.641 380 239.069L378.261 237.455C371.836 231.449 365.194 225.241 357.294 221.609C356.409 221.159 354.5 220.367 353.119 220.367L353.166 220.352Z" fill="#F7F7FB"/>
<path d="M316.552 278.35C315.264 287.165 311.539 295.748 304.276 301.118L304.105 301.273C296.562 308.505 288.476 310.896 278.062 308.987C268.316 307.202 259.128 301.63 253.68 293.249C244.725 279.514 246.681 259.648 258.15 247.915C258.849 247.217 260.044 246.534 260.711 247.264C261.021 247.62 261.037 248.148 260.99 248.614C260.789 251.438 259.764 254.139 259.112 256.901C256.893 266.198 258.833 276.907 264.855 284.449C273.468 295.236 298.751 296.865 306.309 283.534C306.914 282.463 307.504 281.423 308.125 280.337C309.878 277.264 310.794 273.554 311.912 270.171C312.625 268.029 313.603 266.508 314.534 266.664C317.654 268.386 316.8 275.168 316.552 278.35Z" fill="#F7F7FB"/>
<path d="M281.879 256.497C280.823 254.262 279.628 251.996 279.163 249.529C277.89 237.485 295.055 230.067 302.07 240.9L302.241 241.132C313.462 255.55 292.634 271.846 281.879 256.497Z" fill="#F7F7FB"/>
</svg>
