<svg width="32" height="32" viewBox="0 0 32 32" fill="none" xmlns="http://www.w3.org/2000/svg">
<path d="M16 32C24.8366 32 32 24.8366 32 16C32 7.16344 24.8366 0 16 0C7.16344 0 0 7.16344 0 16C0 24.8366 7.16344 32 16 32Z" fill="#F9DB00"/>
<path d="M16.0031 8.17969C11.5857 8.17969 7.99609 11.2406 7.99609 15.011C8.07262 17.4388 9.46392 19.6371 11.6344 20.7362L10.8831 24.0962L14.4935 21.724C14.9944 21.8075 15.4952 21.8493 16.0031 21.8493C20.4204 21.8493 24.01 18.7884 24.01 15.0179C24.01 11.2475 20.4274 8.18664 16.0031 8.18664" fill="#3E1918"/>
</svg>
