<svg width="28" height="28" viewBox="0 0 28 28" fill="none" xmlns="http://www.w3.org/2000/svg">
<path d="M19.6712 17.2771V4.91461C19.6712 4.14425 19.089 3.5 18.2576 3.5C17.6759 3.5 17.2842 3.75319 16.6549 4.32826L11.7858 8.78995C11.7149 8.85914 11.6434 8.90526 11.5603 8.92832L11.0851 8.96267L19.6712 17.2771ZM23.5184 25.4076C23.8867 25.753 24.4684 25.753 24.8129 25.4076C25.1691 25.0514 25.1813 24.4998 24.8129 24.1544L4.48258 4.46614C4.30827 4.30042 4.07375 4.20757 3.82948 4.20757C3.5852 4.20757 3.35069 4.30042 3.17637 4.46614C2.83183 4.79979 2.83183 5.38615 3.17637 5.71981L23.5184 25.4076ZM18.2814 24.6029C18.9821 24.6029 19.469 24.2005 19.6235 23.5219L5.59879 9.96315C5.21878 10.3999 5.00496 11.0328 5.00496 11.8375V16.2997C5.00496 18.0249 5.90735 18.9101 7.58191 18.9101H11.1089C11.2279 18.9101 11.3349 18.9444 11.4058 19.0136L16.6549 23.8556C17.2249 24.3728 17.6997 24.6029 18.2814 24.6029Z" fill="#E0E0E0"/>
</svg>
