<svg width="28" height="28" viewBox="0 0 28 28" fill="none" xmlns="http://www.w3.org/2000/svg">
<path d="M17.4987 4.95819V23.0369C17.4987 24.2957 16.0124 24.963 15.072 24.1265L9.83137 19.4669C9.6712 19.3247 9.46449 19.2463 9.25036 19.2464H4.95703C4.61231 19.2464 4.27097 19.1785 3.95249 19.0465C3.63401 18.9146 3.34463 18.7213 3.10088 18.4775C2.85712 18.2338 2.66377 17.9444 2.53185 17.6259C2.39993 17.3074 2.33203 16.9661 2.33203 16.6214V11.3737C2.33234 10.6777 2.60904 10.0103 3.10129 9.51829C3.59354 9.02626 4.26104 8.74986 4.95703 8.74986H9.25036C9.46464 8.7496 9.67137 8.67073 9.83137 8.52819L15.0709 3.86969C16.0124 3.03319 17.4987 3.70052 17.4987 4.95819ZM22.156 6.88086C22.3425 6.74273 22.5761 6.68431 22.8056 6.71844C23.0351 6.75257 23.2417 6.87646 23.3799 7.06286C24.8677 9.06976 25.6692 11.5027 25.6654 14.001C25.6686 16.499 24.8668 18.9316 23.3787 20.938C23.2391 21.1205 23.0333 21.2407 22.8058 21.2728C22.5783 21.3049 22.3474 21.2462 22.1628 21.1094C21.9782 20.9726 21.8548 20.7687 21.8193 20.5417C21.7837 20.3147 21.8389 20.0828 21.9729 19.8962C23.2375 18.1912 23.9187 16.1238 23.9154 14.001C23.9189 11.8778 23.2377 9.81004 21.9729 8.10469C21.9044 8.01227 21.8547 7.90725 21.8269 7.79563C21.799 7.68401 21.7934 7.56799 21.8104 7.45421C21.8274 7.34042 21.8667 7.23111 21.926 7.13253C21.9853 7.03395 22.0635 6.9492 22.156 6.88086ZM19.9989 9.76486C20.0999 9.71006 20.2107 9.67571 20.3251 9.66376C20.4394 9.65181 20.5549 9.6625 20.6651 9.69522C20.7753 9.72794 20.8779 9.78204 20.9672 9.85445C21.0565 9.92685 21.1306 10.0161 21.1854 10.1172C21.8107 11.2722 22.1654 12.5964 22.1654 14.001C22.166 15.3565 21.8292 16.6909 21.1854 17.8837C21.1307 17.9848 21.0566 18.0742 20.9674 18.1467C20.8781 18.2191 20.7755 18.2733 20.6653 18.3062C20.5552 18.339 20.4396 18.3498 20.3252 18.338C20.2109 18.3261 20.1 18.2919 19.9989 18.2372C19.8977 18.1825 19.8084 18.1084 19.7359 18.0192C19.6634 17.93 19.6092 17.8273 19.5764 17.7172C19.5436 17.607 19.5328 17.4914 19.5446 17.3771C19.5564 17.2627 19.5907 17.1518 19.6454 17.0507C20.1511 16.1138 20.4157 15.0657 20.4154 14.001C20.4154 12.895 20.1354 11.8567 19.6454 10.9502C19.5352 10.7461 19.5105 10.5066 19.5768 10.2844C19.6431 10.0621 19.7949 9.87524 19.9989 9.76486Z" fill="#E0E0E0"/>
</svg>
