<svg width="20" height="20" viewBox="0 0 20 20" fill="none" xmlns="http://www.w3.org/2000/svg">
<path d="M2.49967 12.4993V2.49935C2.49967 2.27834 2.58747 2.06637 2.74375 1.91009C2.90003 1.75381 3.11199 1.66602 3.33301 1.66602H16.6663C16.8874 1.66602 17.0993 1.75381 17.2556 1.91009C17.4119 2.06637 17.4997 2.27834 17.4997 2.49935V15.8327C17.4997 16.4957 17.2363 17.1316 16.7674 17.6004C16.2986 18.0693 15.6627 18.3327 14.9997 18.3327H3.33301C2.66997 18.3327 2.03408 18.0693 1.56524 17.6004C1.0964 17.1316 0.833008 16.4957 0.833008 15.8327V14.166H14.1663V15.8327C14.1663 16.0537 14.2541 16.2657 14.4104 16.4219C14.5667 16.5782 14.7787 16.666 14.9997 16.666C15.2207 16.666 15.4327 16.5782 15.5889 16.4219C15.7452 16.2657 15.833 16.0537 15.833 15.8327V12.4993H2.49967Z" fill="white"/>
</svg>
