<svg width="100" height="100" viewBox="0 0 100 100" fill="none" xmlns="http://www.w3.org/2000/svg">
<g opacity="0.2">
<path d="M16.6663 16.6663H29.1663L37.4997 8.33301H62.4997L70.833 16.6663H83.333C85.5432 16.6663 87.6628 17.5443 89.2256 19.1071C90.7884 20.6699 91.6664 22.7895 91.6664 24.9997V74.9997C91.6664 77.2098 90.7884 79.3294 89.2256 80.8922C87.6628 82.455 85.5432 83.333 83.333 83.333H16.6663C14.4562 83.333 12.3366 82.455 10.7738 80.8922C9.21098 79.3294 8.33301 77.2098 8.33301 74.9997V24.9997C8.33301 22.7895 9.21098 20.6699 10.7738 19.1071C12.3366 17.5443 14.4562 16.6663 16.6663 16.6663ZM49.9997 29.1663C44.4743 29.1663 39.1753 31.3613 35.2683 35.2683C31.3613 39.1753 29.1663 44.4743 29.1663 49.9997C29.1663 55.525 31.3613 60.8241 35.2683 64.7311C39.1753 68.6381 44.4743 70.833 49.9997 70.833C55.525 70.833 60.8241 68.6381 64.7311 64.7311C68.6381 60.8241 70.833 55.525 70.833 49.9997C70.833 44.4743 68.6381 39.1753 64.7311 35.2683C60.8241 31.3613 55.525 29.1663 49.9997 29.1663ZM49.9997 37.4997C53.3149 37.4997 56.4943 38.8166 58.8385 41.1608C61.1827 43.505 62.4997 46.6845 62.4997 49.9997C62.4997 53.3149 61.1827 56.4943 58.8385 58.8385C56.4943 61.1827 53.3149 62.4997 49.9997 62.4997C46.6845 62.4997 43.505 61.1827 41.1608 58.8385C38.8166 56.4943 37.4997 53.3149 37.4997 49.9997C37.4997 46.6845 38.8166 43.505 41.1608 41.1608C43.505 38.8166 46.6845 37.4997 49.9997 37.4997Z" fill="#0F1626"/>
</g>
</svg>
