<svg width="100" height="100" viewBox="0 0 100 100" fill="none" xmlns="http://www.w3.org/2000/svg">
<g opacity="0.2">
<path d="M83.333 25.0003H49.9997L44.1247 19.1253C42.5413 17.542 40.4163 16.667 38.208 16.667H16.6663C12.083 16.667 8.37467 20.417 8.37467 25.0003L8.33301 75.0003C8.33301 79.5837 12.083 83.3337 16.6663 83.3337H83.333C87.9163 83.3337 91.6663 79.5837 91.6663 75.0003V33.3337C91.6663 28.7503 87.9163 25.0003 83.333 25.0003ZM54.1663 54.167V66.667C54.1663 68.9587 52.2913 70.8337 49.9997 70.8337C47.708 70.8337 45.833 68.9587 45.833 66.667V54.167H38.3747C36.4997 54.167 35.583 51.917 36.9163 50.6253L48.583 39.0003C49.4163 38.167 50.708 38.2087 51.5413 39.0003L63.1663 50.6253C64.4163 51.917 63.4997 54.167 61.6663 54.167H54.1663Z" fill="#0F1626"/>
</g>
</svg>
