<svg width="16" height="16" viewBox="0 0 16 16" fill="none" xmlns="http://www.w3.org/2000/svg">
<path d="M4.14234 5.75272L3.97834 6.13005C3.95271 6.1915 3.90947 6.24398 3.85407 6.2809C3.79867 6.31782 3.73358 6.33752 3.66701 6.33752C3.60043 6.33752 3.53534 6.31782 3.47994 6.2809C3.42454 6.24398 3.3813 6.1915 3.35567 6.13005L3.19167 5.75272C2.90333 5.0852 2.37526 4.55 1.71167 4.25272L1.20567 4.02672C1.14429 3.99848 1.09228 3.95323 1.05583 3.89634C1.01938 3.83945 1 3.77329 1 3.70572C1 3.63815 1.01938 3.572 1.05583 3.5151C1.09228 3.45821 1.14429 3.41296 1.20567 3.38472L1.68367 3.17205C2.36394 2.86631 2.90105 2.31131 3.18434 1.62139L3.35367 1.21405C3.37845 1.15096 3.42165 1.09679 3.47766 1.0586C3.53367 1.02042 3.59989 1 3.66767 1C3.73546 1 3.80167 1.02042 3.85768 1.0586C3.91369 1.09679 3.9569 1.15096 3.98167 1.21405L4.15034 1.62072C4.43333 2.31077 4.9702 2.86601 5.65034 3.17205L6.12901 3.38539C6.19021 3.41371 6.24203 3.45895 6.27834 3.51577C6.31466 3.57259 6.33396 3.63862 6.33396 3.70605C6.33396 3.77349 6.31466 3.83952 6.27834 3.89634C6.24203 3.95316 6.19021 3.9984 6.12901 4.02672L5.62234 4.25205C4.95888 4.54963 4.43105 5.08507 4.14301 5.75272M3.04301 15.4094C3.72701 11.2821 5.20834 2.33205 15.0003 2.33205C14.003 4.33205 13.3337 5.33205 12.667 5.99872L12.0003 6.66539L13.0003 7.33205C12.3337 9.33205 10.3337 11.6654 7.66701 11.9987C5.8879 12.2209 4.77634 13.4432 4.33234 15.6654H3.00034L3.04301 15.4094Z" fill="white"/>
</svg>
