<svg width="100" height="100" viewBox="0 0 100 100" fill="none" xmlns="http://www.w3.org/2000/svg">
<g opacity="0.2">
<path fill-rule="evenodd" clip-rule="evenodd" d="M85 40.7222H59.3333V16.5833L85 40.7222ZM64 10H17.3333C12.1533 10 8 13.9061 8 18.7778V80.2222C8 82.5502 8.98333 84.7829 10.7337 86.429C12.484 88.0752 14.858 89 17.3333 89H82.6667C85.142 89 87.516 88.0752 89.2663 86.429C91.0167 84.7829 92 82.5502 92 80.2222V36.3333L64 10ZM17.3333 58.2778V49.5H82.6667V58.2778H17.3333ZM17.3333 75.8333V67.0556H59.3333V75.8333H17.3333ZM23.8991 20.931L23.934 20.9048L23.9311 20.8989C25.1079 20.0455 26.4217 19.5386 27.9072 19.4046C29.8531 19.0667 31.9067 19.4541 33.6632 20.2756C33.8148 20.3757 33.9713 20.476 34.1296 20.5774C34.7954 21.0041 35.4939 21.4517 36.0023 22C37.3131 23.4128 38.1258 25.3761 38.4899 27.2462C39.09 30.3397 37.7617 33.7653 35.4022 35.8131C33.8758 37.1414 31.5892 37.7968 29.6055 37.8842C26.0255 38.0415 22.4397 35.9121 20.9366 32.6438C19.8647 30.4941 19.7423 27.7705 20.4123 25.4897C20.8638 24.4731 21.5221 23.4041 22.1251 22.5011C22.6319 21.9156 23.2699 21.3883 23.8991 20.931ZM34.1409 29.6814C34.0244 29.8853 33.9137 30.0805 33.8001 30.2815V30.2844C32.3786 32.7866 27.6334 32.4807 26.0168 30.4562C24.8865 29.0406 24.5224 27.0306 24.939 25.2858C24.9771 25.1241 25.0218 24.9636 25.0664 24.8032C25.1649 24.449 25.2634 24.0952 25.2914 23.7303C25.3002 23.6429 25.2973 23.5439 25.239 23.4769C25.1167 23.3371 24.8924 23.4652 24.7613 23.5992C22.6086 25.8014 22.2416 29.527 23.9224 32.1079C24.9477 33.6808 26.6693 34.7266 28.4986 35.0616C30.4531 35.4199 31.9708 34.9713 33.3865 33.6139L33.4185 33.5847C34.7817 32.5769 35.4838 30.9631 35.7226 29.3086C35.726 29.268 35.7298 29.2243 35.7339 29.178C35.7901 28.5428 35.8896 27.4165 35.3439 27.1151C35.1662 27.0889 34.9857 27.3715 34.8517 27.7734C34.8042 27.9171 34.7587 28.064 34.7128 28.2118C34.5561 28.7174 34.3956 29.2352 34.1409 29.6814ZM33.0369 22.3234L33.0049 22.2797V22.2826C31.6853 20.2494 28.4636 21.6417 28.7054 23.9022C28.7853 24.3092 28.9676 24.6912 29.1458 25.0642C29.1691 25.113 29.1923 25.1616 29.2152 25.2101C31.2338 28.088 35.1429 25.0295 33.0369 22.3234Z" fill="#0F1626"/>
</g>
</svg>
