<svg width="60" height="60" viewBox="0 0 60 60" fill="none" xmlns="http://www.w3.org/2000/svg">
<path d="M27.9808 7.78846V5.76923C27.9808 5.2337 28.1935 4.7201 28.5722 4.34142C28.9509 3.96274 29.4645 3.75 30 3.75C30.5355 3.75 31.0491 3.96274 31.4278 4.34142C31.8065 4.7201 32.0192 5.2337 32.0192 5.76923V7.78846C32.0192 8.324 31.8065 8.83759 31.4278 9.21627C31.0491 9.59495 30.5355 9.80769 30 9.80769C29.4645 9.80769 28.9509 9.59495 28.5722 9.21627C28.1935 8.83759 27.9808 8.324 27.9808 7.78846ZM30 13.8462C26.8051 13.8462 23.6819 14.7936 21.0254 16.5686C18.3689 18.3436 16.2984 20.8665 15.0758 23.8182C13.8531 26.7699 13.5332 30.0179 14.1565 33.1515C14.7798 36.285 16.3183 39.1633 18.5775 41.4225C20.8367 43.6817 23.715 45.2202 26.8485 45.8435C29.9821 46.4668 33.2301 46.1469 36.1818 44.9242C39.1335 43.7016 41.6564 41.6311 43.4314 38.9746C45.2064 36.3181 46.1538 33.1949 46.1538 30C46.1492 25.7172 44.4458 21.6111 41.4173 18.5827C38.3889 15.5543 34.2828 13.8508 30 13.8462ZM12.4175 15.2748C12.7964 15.6537 13.3103 15.8665 13.8462 15.8665C14.382 15.8665 14.8959 15.6536 15.2748 15.2748C15.6536 14.8959 15.8665 14.382 15.8665 13.8462C15.8665 13.3103 15.6537 12.7964 15.2748 12.4175L13.2555 10.3983C12.8766 10.0194 12.3628 9.80657 11.8269 9.80657C11.2911 9.80657 10.7772 10.0194 10.3983 10.3983C10.0194 10.7772 9.80657 11.2911 9.80657 11.8269C9.80657 12.3628 10.0194 12.8766 10.3983 13.2555L12.4175 15.2748ZM12.4175 44.7252L10.3983 46.7445C10.0194 47.1234 9.80657 47.6372 9.80657 48.1731C9.80657 48.7089 10.0194 49.2228 10.3983 49.6017C10.7772 49.9806 11.2911 50.1934 11.8269 50.1934C12.3628 50.1934 12.8766 49.9806 13.2555 49.6017L15.2748 47.5825C15.4624 47.3948 15.6112 47.1721 15.7127 46.927C15.8143 46.6819 15.8665 46.4192 15.8665 46.1538C15.8665 45.8885 15.8143 45.6258 15.7127 45.3807C15.6112 45.1356 15.4624 44.9128 15.2748 44.7252C15.0872 44.5376 14.8644 44.3888 14.6193 44.2873C14.3742 44.1858 14.1115 44.1335 13.8462 44.1335C13.5808 44.1335 13.3181 44.1858 13.073 44.2873C12.8279 44.3888 12.6052 44.5376 12.4175 44.7252ZM46.1538 15.8654C46.4191 15.8656 46.6818 15.8135 46.9269 15.7122C47.172 15.6109 47.3948 15.4622 47.5825 15.2748L49.6017 13.2555C49.9806 12.8766 50.1934 12.3628 50.1934 11.8269C50.1934 11.2911 49.9806 10.7772 49.6017 10.3983C49.2228 10.0194 48.7089 9.80657 48.1731 9.80657C47.6372 9.80657 47.1234 10.0194 46.7445 10.3983L44.7252 12.4175C44.4425 12.6999 44.25 13.0599 44.1719 13.4518C44.0939 13.8437 44.1339 14.2499 44.2868 14.6191C44.4398 14.9883 44.6988 15.3037 45.0312 15.5256C45.3635 15.7474 45.7542 15.8657 46.1538 15.8654ZM47.5825 44.7252C47.2036 44.3464 46.6897 44.1335 46.1538 44.1335C45.618 44.1335 45.1041 44.3464 44.7252 44.7252C44.3464 45.1041 44.1335 45.618 44.1335 46.1538C44.1335 46.6897 44.3464 47.2036 44.7252 47.5825L46.7445 49.6017C46.9321 49.7893 47.1548 49.9381 47.3999 50.0396C47.645 50.1412 47.9078 50.1934 48.1731 50.1934C48.4384 50.1934 48.7011 50.1412 48.9462 50.0396C49.1914 49.9381 49.4141 49.7893 49.6017 49.6017C49.7893 49.4141 49.9381 49.1914 50.0396 48.9462C50.1412 48.7011 50.1934 48.4384 50.1934 48.1731C50.1934 47.9078 50.1412 47.645 50.0396 47.3999C49.9381 47.1548 49.7893 46.9321 49.6017 46.7445L47.5825 44.7252ZM7.78846 27.9808H5.76923C5.2337 27.9808 4.7201 28.1935 4.34142 28.5722C3.96274 28.9509 3.75 29.4645 3.75 30C3.75 30.5355 3.96274 31.0491 4.34142 31.4278C4.7201 31.8065 5.2337 32.0192 5.76923 32.0192H7.78846C8.324 32.0192 8.83759 31.8065 9.21627 31.4278C9.59495 31.0491 9.80769 30.5355 9.80769 30C9.80769 29.4645 9.59495 28.9509 9.21627 28.5722C8.83759 28.1935 8.324 27.9808 7.78846 27.9808ZM30 50.1923C29.4645 50.1923 28.9509 50.405 28.5722 50.7837C28.1935 51.1624 27.9808 51.676 27.9808 52.2115V54.2308C27.9808 54.7663 28.1935 55.2799 28.5722 55.6586C28.9509 56.0373 29.4645 56.25 30 56.25C30.5355 56.25 31.0491 56.0373 31.4278 55.6586C31.8065 55.2799 32.0192 54.7663 32.0192 54.2308V52.2115C32.0192 51.676 31.8065 51.1624 31.4278 50.7837C31.0491 50.405 30.5355 50.1923 30 50.1923ZM54.2308 27.9808H52.2115C51.676 27.9808 51.1624 28.1935 50.7837 28.5722C50.405 28.9509 50.1923 29.4645 50.1923 30C50.1923 30.5355 50.405 31.0491 50.7837 31.4278C51.1624 31.8065 51.676 32.0192 52.2115 32.0192H54.2308C54.7663 32.0192 55.2799 31.8065 55.6586 31.4278C56.0373 31.0491 56.25 30.5355 56.25 30C56.25 29.4645 56.0373 28.9509 55.6586 28.5722C55.2799 28.1935 54.7663 27.9808 54.2308 27.9808Z" fill="white"/>
</svg>
