<svg width="60" height="60" viewBox="0 0 60 60" fill="none" xmlns="http://www.w3.org/2000/svg">
<path d="M27.7512 30.1994C21.9262 18.9244 26.5012 8.99941 29.0762 5.02441C15.6762 5.49941 4.95117 16.4744 4.95117 29.9994C4.95117 30.3494 5.00117 30.6994 5.00117 31.0494C6.55117 30.3744 8.22617 29.9994 10.0012 29.9994C14.1512 29.9994 17.9512 32.0744 20.2512 35.3744C22.3396 35.976 24.176 37.2401 25.4837 38.9761C26.7913 40.7121 27.4994 42.826 27.5012 44.9994C27.5012 48.7994 25.3262 52.0744 22.2012 53.7744C24.6512 54.5744 27.2762 55.0244 29.9762 55.0244C38.7262 55.0244 46.4262 50.5244 50.9012 43.7244C45.0012 44.2994 33.4512 41.2994 27.7512 30.1994Z" fill="white"/>
<path d="M17.5 40H17.05C16 37.1 13.25 35 10 35C5.85 35 2.5 38.35 2.5 42.5C2.5 46.65 5.85 50 10 50H17.5C20.25 50 22.5 47.75 22.5 45C22.5 42.25 20.25 40 17.5 40Z" fill="white"/>
</svg>
